<?xml version="1.0" encoding="UTF-8"?>
<svg id="Layer_2" data-name="Layer 2" xmlns="http://www.w3.org/2000/svg" viewBox="0 0 157.29 7.04">
  <defs>
    <style>
      .cls-1 {
        fill: none;
        stroke: #000;
        stroke-miterlimit: 10;
        stroke-width: .75px;
      }
    </style>
  </defs>
  <g id="Layer_1-2" data-name="Layer 1">
    <g>
      <line class="cls-1" x1=".38" y1="3.52" x2="156.92" y2="3.52"/>
      <g>
        <line class="cls-1" x1=".38" y1="0" x2=".38" y2="7.04"/>
        <line class="cls-1" x1="31.68" y1="0" x2="31.68" y2="7.04"/>
        <line class="cls-1" x1="62.99" y1="0" x2="62.99" y2="7.04"/>
        <line class="cls-1" x1="94.3" y1="0" x2="94.3" y2="7.04"/>
        <line class="cls-1" x1="125.61" y1="0" x2="125.61" y2="7.04"/>
        <line class="cls-1" x1="156.92" y1="0" x2="156.92" y2="7.04"/>
      </g>
      <g>
        <line class="cls-1" x1=".38" y1="1.66" x2=".38" y2="5.39"/>
        <line class="cls-1" x1="10.81" y1="1.66" x2="10.81" y2="5.39"/>
        <line class="cls-1" x1="21.25" y1="1.66" x2="21.25" y2="5.39"/>
        <line class="cls-1" x1="31.68" y1="1.66" x2="31.68" y2="5.39"/>
        <line class="cls-1" x1="42.12" y1="1.66" x2="42.12" y2="5.39"/>
        <line class="cls-1" x1="52.56" y1="1.66" x2="52.56" y2="5.39"/>
        <line class="cls-1" x1="62.99" y1="1.66" x2="62.99" y2="5.39"/>
        <line class="cls-1" x1="73.43" y1="1.66" x2="73.43" y2="5.39"/>
        <line class="cls-1" x1="83.86" y1="1.66" x2="83.86" y2="5.39"/>
        <line class="cls-1" x1="94.3" y1="1.66" x2="94.3" y2="5.39"/>
        <line class="cls-1" x1="104.74" y1="1.66" x2="104.74" y2="5.39"/>
        <line class="cls-1" x1="115.17" y1="1.66" x2="115.17" y2="5.39"/>
        <line class="cls-1" x1="125.61" y1="1.66" x2="125.61" y2="5.39"/>
        <line class="cls-1" x1="136.04" y1="1.66" x2="136.04" y2="5.39"/>
        <line class="cls-1" x1="146.48" y1="1.66" x2="146.48" y2="5.39"/>
        <line class="cls-1" x1="156.92" y1="1.66" x2="156.92" y2="5.39"/>
      </g>
    </g>
  </g>
</svg>