<?xml version="1.0" encoding="UTF-8"?>
<svg id="Layer_2" data-name="Layer 2" xmlns="http://www.w3.org/2000/svg" viewBox="0 0 73.01 73.01">
  <g id="Layer_1-2" data-name="Layer 1">
    <g>
      <g id="_Grid_Repeat_" data-name="&amp;lt;Grid Repeat&amp;gt;">
        <circle cx="3.77" cy="3.77" r="3.77"/>
      </g>
      <g id="_Grid_Repeat_-2" data-name="&amp;lt;Grid Repeat&amp;gt;">
        <circle cx="14.68" cy="3.77" r="3.77"/>
      </g>
      <g id="_Grid_Repeat_-3" data-name="&amp;lt;Grid Repeat&amp;gt;">
        <circle cx="25.59" cy="3.77" r="3.77"/>
      </g>
      <g id="_Grid_Repeat_-4" data-name="&amp;lt;Grid Repeat&amp;gt;">
        <circle cx="36.5" cy="3.77" r="3.77"/>
      </g>
      <g id="_Grid_Repeat_-5" data-name="&amp;lt;Grid Repeat&amp;gt;">
        <circle cx="47.41" cy="3.77" r="3.77"/>
      </g>
      <g id="_Grid_Repeat_-6" data-name="&amp;lt;Grid Repeat&amp;gt;">
        <path d="M58.32,1c1.53,0,2.77,1.24,2.77,2.77s-1.24,2.77-2.77,2.77-2.77-1.24-2.77-2.77,1.24-2.77,2.77-2.77M58.32,0c-2.08,0-3.77,1.69-3.77,3.77s1.69,3.77,3.77,3.77,3.77-1.69,3.77-3.77-1.69-3.77-3.77-3.77h0Z"/>
      </g>
      <g id="_Grid_Repeat_-7" data-name="&amp;lt;Grid Repeat&amp;gt;">
        <circle cx="69.23" cy="3.77" r="3.77"/>
      </g>
      <g id="_Grid_Repeat_-8" data-name="&amp;lt;Grid Repeat&amp;gt;">
        <circle cx="3.77" cy="14.68" r="3.77"/>
      </g>
      <g id="_Grid_Repeat_-9" data-name="&amp;lt;Grid Repeat&amp;gt;">
        <path d="M14.68,11.91c1.53,0,2.77,1.24,2.77,2.77s-1.24,2.77-2.77,2.77-2.77-1.24-2.77-2.77,1.24-2.77,2.77-2.77M14.68,10.91c-2.08,0-3.77,1.69-3.77,3.77s1.69,3.77,3.77,3.77,3.77-1.69,3.77-3.77-1.69-3.77-3.77-3.77h0Z"/>
      </g>
      <g id="_Grid_Repeat_-10" data-name="&amp;lt;Grid Repeat&amp;gt;">
        <circle cx="25.59" cy="14.68" r="3.77"/>
      </g>
      <g id="_Grid_Repeat_-11" data-name="&amp;lt;Grid Repeat&amp;gt;">
        <circle cx="36.5" cy="14.68" r="3.77"/>
      </g>
      <g id="_Grid_Repeat_-12" data-name="&amp;lt;Grid Repeat&amp;gt;">
        <circle cx="47.41" cy="14.68" r="3.77"/>
      </g>
      <g id="_Grid_Repeat_-13" data-name="&amp;lt;Grid Repeat&amp;gt;">
        <circle cx="58.32" cy="14.68" r="3.77"/>
      </g>
      <g id="_Grid_Repeat_-14" data-name="&amp;lt;Grid Repeat&amp;gt;">
        <circle cx="69.23" cy="14.68" r="3.77"/>
      </g>
      <g id="_Grid_Repeat_-15" data-name="&amp;lt;Grid Repeat&amp;gt;">
        <circle cx="3.77" cy="25.59" r="3.77"/>
      </g>
      <g id="_Grid_Repeat_-16" data-name="&amp;lt;Grid Repeat&amp;gt;">
        <circle cx="14.68" cy="25.59" r="3.77"/>
      </g>
      <g id="_Grid_Repeat_-17" data-name="&amp;lt;Grid Repeat&amp;gt;">
        <circle cx="25.59" cy="25.59" r="3.77"/>
      </g>
      <g id="_Grid_Repeat_-18" data-name="&amp;lt;Grid Repeat&amp;gt;">
        <circle cx="36.5" cy="25.59" r="3.77"/>
      </g>
      <g id="_Grid_Repeat_-19" data-name="&amp;lt;Grid Repeat&amp;gt;">
        <path d="M47.41,22.82c1.53,0,2.77,1.24,2.77,2.77s-1.24,2.77-2.77,2.77-2.77-1.24-2.77-2.77,1.24-2.77,2.77-2.77M47.41,21.82c-2.08,0-3.77,1.69-3.77,3.77s1.69,3.77,3.77,3.77,3.77-1.69,3.77-3.77-1.69-3.77-3.77-3.77h0Z"/>
      </g>
      <g id="_Grid_Repeat_-20" data-name="&amp;lt;Grid Repeat&amp;gt;">
        <path d="M58.32,22.82c1.53,0,2.77,1.24,2.77,2.77s-1.24,2.77-2.77,2.77-2.77-1.24-2.77-2.77,1.24-2.77,2.77-2.77M58.32,21.82c-2.08,0-3.77,1.69-3.77,3.77s1.69,3.77,3.77,3.77,3.77-1.69,3.77-3.77-1.69-3.77-3.77-3.77h0Z"/>
      </g>
      <g id="_Grid_Repeat_-21" data-name="&amp;lt;Grid Repeat&amp;gt;">
        <circle cx="69.23" cy="25.59" r="3.77"/>
      </g>
      <g id="_Grid_Repeat_-22" data-name="&amp;lt;Grid Repeat&amp;gt;">
        <circle cx="3.77" cy="36.5" r="3.77"/>
      </g>
      <g id="_Grid_Repeat_-23" data-name="&amp;lt;Grid Repeat&amp;gt;">
        <circle cx="14.68" cy="36.5" r="3.77"/>
      </g>
      <g id="_Grid_Repeat_-24" data-name="&amp;lt;Grid Repeat&amp;gt;">
        <circle cx="25.59" cy="36.5" r="3.77"/>
      </g>
      <g id="_Grid_Repeat_-25" data-name="&amp;lt;Grid Repeat&amp;gt;">
        <circle cx="36.5" cy="36.5" r="3.77"/>
      </g>
      <g id="_Grid_Repeat_-26" data-name="&amp;lt;Grid Repeat&amp;gt;">
        <circle cx="47.41" cy="36.5" r="3.77"/>
      </g>
      <g id="_Grid_Repeat_-27" data-name="&amp;lt;Grid Repeat&amp;gt;">
        <circle cx="58.32" cy="36.5" r="3.77"/>
      </g>
      <g id="_Grid_Repeat_-28" data-name="&amp;lt;Grid Repeat&amp;gt;">
        <circle cx="69.23" cy="36.5" r="3.77"/>
      </g>
      <g id="_Grid_Repeat_-29" data-name="&amp;lt;Grid Repeat&amp;gt;">
        <circle cx="3.77" cy="47.41" r="3.77"/>
      </g>
      <g id="_Grid_Repeat_-30" data-name="&amp;lt;Grid Repeat&amp;gt;">
        <circle cx="14.68" cy="47.41" r="3.77"/>
      </g>
      <g id="_Grid_Repeat_-31" data-name="&amp;lt;Grid Repeat&amp;gt;">
        <circle cx="25.59" cy="47.41" r="3.77"/>
      </g>
      <g id="_Grid_Repeat_-32" data-name="&amp;lt;Grid Repeat&amp;gt;">
        <circle cx="36.5" cy="47.41" r="3.77"/>
      </g>
      <g id="_Grid_Repeat_-33" data-name="&amp;lt;Grid Repeat&amp;gt;">
        <circle cx="47.41" cy="47.41" r="3.77"/>
      </g>
      <g id="_Grid_Repeat_-34" data-name="&amp;lt;Grid Repeat&amp;gt;">
        <circle cx="58.32" cy="47.41" r="3.77"/>
      </g>
      <g id="_Grid_Repeat_-35" data-name="&amp;lt;Grid Repeat&amp;gt;">
        <circle cx="69.23" cy="47.41" r="3.77"/>
      </g>
      <g id="_Grid_Repeat_-36" data-name="&amp;lt;Grid Repeat&amp;gt;">
        <circle cx="3.77" cy="58.32" r="3.77"/>
      </g>
      <g id="_Grid_Repeat_-37" data-name="&amp;lt;Grid Repeat&amp;gt;">
        <circle cx="14.68" cy="58.32" r="3.77"/>
      </g>
      <g id="_Grid_Repeat_-38" data-name="&amp;lt;Grid Repeat&amp;gt;">
        <circle cx="25.59" cy="58.32" r="3.77"/>
      </g>
      <g id="_Grid_Repeat_-39" data-name="&amp;lt;Grid Repeat&amp;gt;">
        <path d="M36.5,55.55c1.53,0,2.77,1.24,2.77,2.77s-1.24,2.77-2.77,2.77-2.77-1.24-2.77-2.77,1.24-2.77,2.77-2.77M36.5,54.55c-2.08,0-3.77,1.69-3.77,3.77s1.69,3.77,3.77,3.77,3.77-1.69,3.77-3.77-1.69-3.77-3.77-3.77h0Z"/>
      </g>
      <g id="_Grid_Repeat_-40" data-name="&amp;lt;Grid Repeat&amp;gt;">
        <circle cx="47.41" cy="58.32" r="3.77"/>
      </g>
      <g id="_Grid_Repeat_-41" data-name="&amp;lt;Grid Repeat&amp;gt;">
        <circle cx="58.32" cy="58.32" r="3.77"/>
      </g>
      <g id="_Grid_Repeat_-42" data-name="&amp;lt;Grid Repeat&amp;gt;">
        <circle cx="69.23" cy="58.32" r="3.77"/>
      </g>
      <g id="_Grid_Repeat_-43" data-name="&amp;lt;Grid Repeat&amp;gt;">
        <circle cx="3.77" cy="69.23" r="3.77"/>
      </g>
      <g id="_Grid_Repeat_-44" data-name="&amp;lt;Grid Repeat&amp;gt;">
        <path d="M14.68,66.46c1.53,0,2.77,1.24,2.77,2.77s-1.24,2.77-2.77,2.77-2.77-1.24-2.77-2.77,1.24-2.77,2.77-2.77M14.68,65.46c-2.08,0-3.77,1.69-3.77,3.77s1.69,3.77,3.77,3.77,3.77-1.69,3.77-3.77-1.69-3.77-3.77-3.77h0Z"/>
      </g>
      <g id="_Grid_Repeat_-45" data-name="&amp;lt;Grid Repeat&amp;gt;">
        <circle cx="25.59" cy="69.23" r="3.77"/>
      </g>
      <g id="_Grid_Repeat_-46" data-name="&amp;lt;Grid Repeat&amp;gt;">
        <circle cx="36.5" cy="69.23" r="3.77"/>
      </g>
      <g id="_Grid_Repeat_-47" data-name="&amp;lt;Grid Repeat&amp;gt;">
        <circle cx="47.41" cy="69.23" r="3.77"/>
      </g>
      <g id="_Grid_Repeat_-48" data-name="&amp;lt;Grid Repeat&amp;gt;">
        <circle cx="58.32" cy="69.23" r="3.77"/>
      </g>
      <g id="_Grid_Repeat_-49" data-name="&amp;lt;Grid Repeat&amp;gt;">
        <circle cx="69.23" cy="69.23" r="3.77"/>
      </g>
    </g>
  </g>
</svg>