<?xml version="1.0" encoding="UTF-8"?>
<svg id="Layer_2" data-name="Layer 2" xmlns="http://www.w3.org/2000/svg" viewBox="0 0 105.13 105.71">
  <defs>
    <style>
      .cls-1 {
        fill: none;
        stroke: #000;
        stroke-linecap: square;
        stroke-miterlimit: 10;
        stroke-width: .75px;
      }
    </style>
  </defs>
  <g id="Layer_1-2" data-name="Layer 1">
    <g>
      <g>
        <path d="M52.68,5.07l-.07,3.48-1.08-.02.16-8.53,2.5.05c.4.01.77.08,1.12.19.35.11.66.28.92.49.26.22.46.48.6.81.14.32.21.7.2,1.13,0,.28-.05.53-.13.76s-.2.44-.34.62c-.14.19-.32.35-.51.49-.2.14-.42.26-.65.36l1.74,3.68v.07s-1.15-.02-1.15-.02l-1.61-3.51-1.7-.03ZM54.15,4.21c.24,0,.47-.03.69-.1.22-.07.41-.17.57-.3.16-.13.29-.3.39-.49.1-.2.15-.42.15-.68,0-.27-.04-.51-.12-.72-.09-.21-.21-.38-.37-.53-.16-.14-.35-.25-.57-.32-.22-.07-.46-.12-.72-.12l-1.42-.03-.06,3.27,1.45.03Z"/>
        <path d="M59.55,5.01l-.48,2.98,4.1.66-.15.91-5.17-.83,1.35-8.42,5.12.82-.15.91-4.05-.65-.44,2.71,3.52.57-.15.91-3.52-.57Z"/>
        <path d="M68.98,8.4c-.06-.21-.16-.4-.3-.57-.14-.17-.31-.33-.5-.47-.19-.15-.37-.28-.55-.41-.26-.18-.51-.39-.77-.61-.26-.22-.48-.47-.66-.73-.19-.27-.32-.55-.39-.86-.07-.31-.06-.64.05-.99s.28-.64.52-.87.52-.4.83-.51.64-.17.99-.17.68.05,1,.15c.35.11.68.28.97.5.29.22.53.48.72.77.19.29.31.61.37.96s.03.71-.08,1.09l-1.06-.33c.04-.24.05-.48.03-.69s-.09-.42-.19-.6c-.1-.18-.23-.34-.41-.48-.17-.14-.38-.24-.63-.32-.2-.06-.4-.09-.6-.1-.21,0-.4.03-.58.1-.18.07-.35.17-.48.3s-.24.31-.31.53c-.07.24-.07.45,0,.65s.17.38.31.55c.14.17.3.32.49.46.18.14.36.27.52.38.27.19.54.39.8.62s.48.48.67.76c.19.27.31.56.38.89.06.32.04.67-.07,1.03-.11.37-.29.66-.54.88s-.53.38-.84.48c-.31.1-.65.15-1,.14-.35-.01-.69-.07-1.02-.17-.39-.12-.75-.3-1.08-.55-.33-.25-.6-.54-.8-.87-.18-.29-.3-.6-.35-.93-.05-.33-.03-.67.06-1.03l1.06.33c-.05.26-.05.51,0,.74s.13.43.25.62c.12.19.28.35.47.49.19.14.42.24.67.32.2.06.41.1.62.11s.41-.01.6-.08c.19-.06.35-.15.5-.28.15-.13.26-.31.33-.53.08-.25.09-.48.03-.69Z"/>
        <path d="M76.13,6.25l-3.27,6.87-.95-.45,3.27-6.87-2.38-1.13.4-.84,5.71,2.72-.4.84-2.38-1.13Z"/>
        <path d="M77.98,13.41l-1.79,1.46-.9-.6,7.02-5.58.76.5-2.47,8.6-.9-.6.66-2.21-2.37-1.58ZM80.63,14.04l1.11-3.71-3,2.45,1.89,1.25Z"/>
        <path d="M84.1,16.29l-2.31,2.6-.81-.72,5.67-6.37,1.87,1.66c.29.27.53.56.73.88s.32.64.38.97c.05.33.03.67-.07,1-.1.34-.29.67-.58.99-.18.21-.38.37-.6.49-.21.12-.43.2-.66.25-.23.05-.47.06-.71.04-.24-.02-.48-.07-.73-.15l-1.07,3.93-.05.05-.85-.76,1.06-3.71-1.27-1.13ZM85.78,16.59c.18.16.38.28.59.37s.42.14.63.14c.21,0,.42-.04.62-.12s.39-.22.56-.42c.18-.2.31-.41.38-.62s.09-.43.06-.64c-.03-.21-.1-.41-.22-.61s-.27-.39-.47-.56l-1.06-.95-2.17,2.44,1.08.97Z"/>
        <path d="M93.43,19.86l-5.8,4.92-.68-.8,5.8-4.92-1.7-2.01.71-.6,4.09,4.83-.71.6-1.7-2.01Z"/>
        <path d="M99.61,27.12l-.8.5-1.09-1.73-5.63,3.54,1.09,1.73-.79.5-2.74-4.37.79-.5,1.06,1.69,5.63-3.54-1.06-1.69.8-.5,2.74,4.37Z"/>
        <path d="M94.67,36.56l4.48-5.62-5.83,2.58-.45-1,7.79-3.47.45,1.01-4.46,5.61,5.82-2.57.45,1-7.79,3.47-.45-1.01Z"/>
        <path d="M97.5,43.2c-.16-.11-.31-.23-.45-.35-.23-.22-.43-.47-.59-.75-.16-.28-.29-.59-.38-.93-.09-.34-.13-.67-.11-.98.02-.31.08-.61.2-.88.11-.27.26-.53.45-.77.19-.24.41-.45.65-.64.24-.2.5-.36.79-.51.29-.14.58-.26.89-.35l.95-.27c.31-.08.62-.14.93-.18s.63-.04.94-.01c.31.03.6.08.89.17.28.09.54.22.78.39.23.17.44.38.62.63.18.25.32.55.42.89.11.38.15.75.12,1.11-.03.36-.11.69-.26.99-.15.3-.36.57-.63.81-.27.23-.59.42-.96.57l-.29-1.03c.23-.11.43-.24.6-.38.18-.14.32-.3.42-.48.1-.18.17-.38.19-.6s0-.46-.07-.72c-.07-.25-.18-.46-.31-.62-.14-.17-.3-.3-.48-.41-.18-.1-.38-.17-.6-.21s-.44-.06-.67-.06c-.23,0-.45.02-.68.05-.23.04-.44.08-.64.14l-.96.27c-.21.06-.41.14-.62.24-.21.09-.41.21-.6.33s-.37.27-.52.43c-.16.16-.29.33-.39.52-.1.19-.17.39-.2.61-.03.22-.01.45.06.7.04.14.08.29.14.44.06.15.13.29.22.43.09.13.19.25.3.36.11.11.24.18.39.24l1.85-.51-.47-1.67.88-.25.76,2.66-3,.87c-.19-.08-.36-.18-.52-.29Z"/>
        <path d="M101.6,49.81h.88s.1,6.34.1,6.34h-.88s-.1-6.34-.1-6.34Z"/>
        <path d="M103.75,69.9l-.91-.25.55-1.97-6.41-1.78-.55,1.97-.9-.25,1.38-4.97.9.25-.53,1.92,6.41,1.78.53-1.92.91.25-1.38,4.97Z"/>
        <path d="M102.99,72.04l-.79,1.81c-.14.3-.29.58-.47.82-.18.24-.37.46-.58.64-.29.25-.6.45-.95.59-.35.14-.71.22-1.08.23-.32.02-.66,0-1-.08-.35-.07-.7-.18-1.06-.33l-.57-.25c-.34-.15-.65-.33-.93-.53s-.52-.42-.72-.66c-.21-.25-.38-.52-.52-.81s-.22-.59-.27-.9c-.05-.33-.04-.67.01-1.04.06-.36.16-.73.33-1.11l.79-1.81,7.81,3.43ZM95.55,69.98l-.35.8c-.12.29-.2.56-.23.83-.03.26-.03.52.02.75.04.25.13.49.25.71s.29.43.48.61c.16.15.34.3.54.43.2.13.43.25.66.36l.58.26c.24.1.49.19.73.25.24.06.47.09.7.1.29.01.58-.02.85-.09s.52-.2.75-.38c.17-.13.32-.28.46-.47.14-.18.27-.4.38-.65l.35-.8-6.19-2.71Z"/>
        <path d="M92.36,77.19c.07.21.02.43-.13.67-.15.24-.33.38-.54.42-.22.04-.42,0-.62-.13-.2-.12-.32-.29-.38-.49-.05-.21,0-.43.14-.67.15-.24.33-.38.54-.42.21-.04.41,0,.6.12.2.12.33.29.39.49ZM96.73,79.89c.07.21.02.43-.13.67-.15.24-.33.38-.54.42-.22.04-.42,0-.62-.13-.2-.12-.32-.29-.38-.5-.05-.21,0-.43.14-.67.15-.24.33-.38.54-.42.21-.04.41,0,.6.12.2.12.33.29.39.49Z"/>
        <path d="M85.55,84.07l.53.57.04,4.18c0,.37.02.7.04.97.02.27.06.51.11.71.05.2.11.38.19.52.08.15.17.29.29.41.14.16.3.28.48.37.18.09.36.14.54.16.19.01.38-.02.57-.08s.37-.18.54-.34c.21-.19.36-.39.46-.59s.15-.4.15-.61c0-.21-.05-.41-.14-.62-.1-.21-.23-.41-.41-.6l.8-.74c.24.26.43.56.55.88.12.32.18.65.16.98-.01.33-.1.67-.25,1s-.4.65-.72.95c-.3.27-.6.47-.92.6s-.63.19-.94.19-.6-.07-.88-.21c-.28-.13-.54-.32-.77-.57-.17-.19-.31-.4-.41-.64-.1-.24-.19-.5-.24-.78-.05-.28-.09-.57-.11-.88-.02-.3-.03-.62-.03-.93v-3.38s-3.15,2.9-3.15,2.9l-.6-.65,4.12-3.78Z"/>
        <path d="M81.87,92.43l-1.71-2.49-3.42,2.35-.52-.76,4.32-2.96,4.83,7.03-4.27,2.94-.52-.76,3.38-2.32-1.55-2.26-2.94,2.02-.52-.76,2.94-2.02Z"/>
        <path d="M76.56,95.1l.4.8-4.02,1.99-.4-.8,4.02-1.99Z"/>
        <path d="M65.12,97.81c.04-.36.14-.69.3-.99.16-.3.38-.57.65-.8s.61-.41,1-.54c.33-.11.65-.16.96-.16s.59.06.86.15c.27.1.52.23.75.41.23.17.44.38.62.61.19.23.36.49.51.76.15.28.27.56.37.86l.37,1.13c.1.3.17.61.21.92s.06.62.05.92c-.01.3-.06.59-.14.87-.08.28-.2.54-.36.77-.16.24-.35.45-.59.63s-.53.33-.87.44c-.4.13-.79.19-1.15.17s-.69-.1-1-.25c-.31-.15-.58-.37-.83-.64s-.45-.6-.62-.97l1.03-.34c.11.23.25.44.4.63.15.18.32.33.51.45.19.12.4.18.63.21.23.03.48,0,.75-.09.25-.08.45-.19.61-.33s.29-.3.37-.48c.09-.18.15-.38.19-.59s.04-.43.03-.65-.04-.44-.09-.67c-.05-.22-.1-.43-.17-.63l-.38-1.14c-.07-.2-.15-.4-.24-.61-.09-.21-.2-.4-.33-.59-.12-.19-.26-.36-.41-.51s-.31-.28-.5-.37c-.18-.1-.38-.15-.59-.17-.21-.02-.44.01-.69.09-.27.09-.49.21-.66.36-.17.15-.3.33-.38.53-.09.2-.14.42-.15.65s0,.48.05.74l-1.03.34c-.08-.39-.09-.77-.05-1.13Z"/>
        <path d="M58.7,99.04c.09-.35.24-.66.44-.94.2-.28.45-.51.76-.7.31-.19.66-.32,1.06-.39.35-.06.67-.07.97-.02.3.05.58.14.83.27.25.13.48.3.68.51s.38.44.53.7c.16.26.29.53.39.83.11.29.19.6.25.91l.21,1.17c.05.31.08.62.08.94,0,.31-.03.62-.09.91-.05.3-.14.58-.26.84s-.27.5-.47.72c-.19.21-.41.39-.68.54-.26.15-.57.25-.92.31-.42.07-.81.08-1.16,0s-.67-.2-.95-.39c-.28-.2-.52-.45-.73-.75-.2-.31-.36-.65-.48-1.05l1.07-.19c.08.25.18.47.3.68.12.2.27.38.44.52.17.14.37.24.59.3.22.06.47.06.75.01.25-.04.47-.13.65-.24s.33-.26.44-.43c.12-.17.21-.35.27-.56.06-.21.1-.42.12-.64.02-.22.02-.45,0-.67s-.04-.44-.08-.65l-.21-1.18c-.04-.21-.09-.42-.15-.64-.06-.22-.14-.43-.24-.63-.1-.21-.21-.39-.33-.57-.13-.17-.27-.32-.44-.43-.17-.12-.36-.21-.56-.25s-.44-.05-.7,0c-.28.05-.52.14-.71.26-.19.12-.34.28-.46.47-.11.18-.19.39-.24.62-.05.23-.06.48-.05.74l-1.07.19c-.02-.4.02-.77.11-1.12Z"/>
        <path d="M51.62,101.7l-.09.88-6.33-.61.08-.88,6.33.61Z"/>
        <path d="M36.33,103.66l-2.36-.92c-.33-.13-.63-.3-.91-.5s-.51-.44-.69-.71c-.18-.27-.29-.56-.33-.88s.01-.67.16-1.04c.08-.21.19-.38.32-.53.13-.15.28-.27.44-.36.17-.09.34-.16.51-.2s.37-.07.6-.08v-.02c-.18-.13-.33-.29-.47-.48-.14-.2-.24-.39-.3-.59-.06-.21-.09-.44-.08-.67,0-.23.06-.47.15-.7.14-.37.34-.67.6-.9s.54-.39.86-.48c.32-.1.66-.14,1.02-.11.36.02.71.1,1.05.23l2.54.99-3.1,7.95ZM35.23,99.33c-.19-.07-.39-.11-.59-.13s-.4,0-.58.06c-.18.05-.35.14-.5.26s-.26.29-.34.5c-.09.22-.12.43-.09.62.02.19.09.36.19.52.11.16.25.29.41.41.17.12.35.22.55.3l1.38.54.99-2.53-1.41-.55ZM38.08,96.18l-1.56-.61c-.21-.08-.43-.12-.64-.13-.22,0-.42.02-.61.08s-.37.17-.52.31c-.15.14-.27.32-.36.54-.09.22-.13.44-.12.64s.06.4.15.57c.09.17.22.33.38.47.16.14.35.25.56.34l1.61.63,1.12-2.86Z"/>
        <path d="M31.39,94.65l1.68-1.59.94.53-6.59,6.07-.79-.45,1.84-8.76.94.53-.5,2.25,2.48,1.4ZM28.7,94.21l-.84,3.78,2.82-2.66-1.97-1.12Z"/>
        <path d="M24.72,87.57l-1.26,7.07,3.9-5.04.87.67-5.2,6.76-.87-.67,1.25-7.06-3.89,5.03-.87-.67,5.2-6.76.87.67Z"/>
        <path d="M17.1,92.27l-1.38-1.41c-.23-.24-.42-.49-.58-.74-.16-.26-.29-.51-.38-.78-.13-.36-.19-.73-.19-1.1,0-.37.06-.74.19-1.09.11-.31.25-.61.45-.9.19-.29.43-.58.7-.86l.45-.44c.27-.26.55-.48.84-.67.29-.18.58-.32.88-.42.31-.1.62-.16.94-.18.32-.01.63.02.94.09.32.08.64.21.96.4.31.19.62.43.91.72l1.38,1.41-6.1,5.96ZM21.79,86.14l-.61-.62c-.22-.22-.45-.4-.68-.53-.23-.13-.47-.22-.7-.27-.25-.05-.5-.06-.75-.03-.25.03-.5.11-.75.22-.2.09-.4.2-.6.34-.2.14-.39.3-.58.48l-.46.45c-.19.19-.35.38-.5.58-.15.2-.27.4-.36.61-.12.27-.2.54-.23.82-.03.28,0,.56.07.84.06.2.14.4.26.61s.27.4.46.6l.61.62,4.83-4.72Z"/>
        <path d="M12.22,87.17l-.61-.83,4.38-3.98.25-.23-.32.16-5.34,2.64-.56-.76,4.12-4.31.24-.26-.3.18-5.1,2.98-.61-.83,7.49-4.21.66.89-4.28,4.43-.25.26.33-.16,5.51-2.75.66.9-6.26,5.88Z"/>
        <path d="M5.13,75.99l.83-.45.97,1.8,5.86-3.14-.97-1.8.83-.44,2.44,4.54-.83.44-.94-1.76-5.86,3.14.94,1.76-.83.45-2.44-4.54Z"/>
        <path d="M4.19,73.92l-.68-1.85c-.11-.31-.19-.62-.23-.92-.04-.3-.05-.59-.02-.86.03-.38.12-.74.28-1.08.15-.34.36-.64.62-.91.22-.24.48-.45.78-.64.3-.19.63-.35.99-.49l.59-.21c.35-.13.7-.22,1.04-.26s.67-.05.98-.02c.32.03.63.11.93.23s.57.28.82.47c.26.2.5.46.71.76.21.3.39.64.53,1.03l.68,1.85-8.02,2.92ZM10.99,70.26l-.3-.82c-.11-.29-.24-.55-.4-.76s-.33-.39-.53-.53c-.2-.15-.43-.26-.67-.34-.25-.08-.5-.11-.77-.11-.22,0-.45.02-.69.06-.24.04-.48.11-.73.2l-.6.22c-.25.09-.48.2-.7.33-.22.12-.41.26-.58.41-.22.19-.4.41-.55.65s-.24.51-.28.8c-.03.21-.04.43-.01.66.02.23.08.48.17.73l.3.82,6.35-2.31Z"/>
        <path d="M2,63.44l7.44-1.56.22,1.03-7.44,1.56.54,2.58-.91.19-1.3-6.19.91-.19.54,2.58Z"/>
        <path d="M8.58,54.42l-3.94.26.23,3.49,3.94-.26.07,1.02-8.51.56-.07-1.02,3.66-.24-.23-3.49-3.66.24-.07-1.02,8.51-.56.07,1.02Z"/>
        <path d="M2.3,49.54c-.15-.15-.22-.37-.2-.66.02-.28.12-.49.29-.62.17-.13.38-.19.61-.17.23.02.42.11.56.27.15.16.21.38.19.65-.02.28-.12.49-.28.62-.17.13-.37.19-.59.17-.23-.02-.42-.1-.57-.25ZM7.42,49.92c-.15-.15-.22-.37-.2-.66.02-.28.12-.49.29-.62s.38-.19.61-.17c.23.02.42.11.56.26.14.16.21.38.19.65-.02.28-.12.49-.28.62-.17.13-.37.19-.59.17-.23-.02-.42-.1-.57-.25Z"/>
        <path d="M10.27,40.67l-.73-.27-1.96-3.69c-.17-.33-.33-.61-.48-.84s-.29-.43-.42-.58c-.13-.16-.27-.28-.41-.38-.14-.1-.29-.17-.45-.23-.2-.07-.4-.11-.59-.11s-.38.04-.56.11c-.17.08-.33.19-.47.34-.14.15-.25.33-.33.55-.1.27-.14.51-.14.74,0,.22.05.43.15.61.1.18.23.34.41.48.18.14.39.25.64.34l-.37,1.02c-.34-.12-.63-.3-.89-.52-.26-.23-.46-.49-.6-.8-.14-.3-.22-.64-.24-1.01s.05-.76.2-1.17c.14-.38.32-.7.54-.96s.47-.46.75-.6.57-.21.88-.22c.31-.01.63.04.95.16.24.09.46.21.66.38.2.17.39.36.57.58.18.22.34.46.5.73s.31.54.45.82l1.55,3,1.47-4.02.83.3-1.91,5.25Z"/>
        <path d="M12.48,31.97c-.08-.2-.05-.43.08-.68.13-.25.31-.4.52-.45.21-.05.42-.02.63.09.2.11.34.27.41.47.07.21.04.43-.09.67-.13.25-.3.4-.51.45-.21.05-.41.02-.61-.08-.2-.11-.34-.26-.42-.46Z"/>
        <path d="M16.69,22.7l.71.52-.7.96,1.6,1.17-.64.87-1.6-1.17-2.3,3.14-.52-.38-2.51-6.58.68-.93,4.57,3.35.7-.96ZM15.34,24.53l-3.41-2.5.16.34,1.65,4.33,1.59-2.17Z"/>
        <path d="M22.58,19.71c-.01.2-.04.38-.09.56-.07.31-.19.61-.36.89-.16.28-.37.55-.61.79-.25.25-.51.44-.79.58s-.57.23-.86.27c-.29.04-.59.04-.89,0-.3-.05-.59-.13-.88-.25-.29-.11-.57-.26-.83-.43-.27-.18-.52-.38-.75-.6l-.71-.69c-.22-.22-.43-.46-.62-.72-.19-.26-.35-.53-.48-.81s-.23-.57-.29-.86c-.06-.29-.08-.58-.05-.88.03-.29.11-.57.23-.85.13-.28.32-.55.57-.81.28-.29.58-.5.9-.66.32-.15.65-.24.99-.26.34-.02.68.03,1.01.15s.66.3.97.55l-.75.77c-.21-.14-.42-.25-.63-.33-.21-.08-.42-.12-.63-.12-.21,0-.42.05-.62.13-.2.09-.4.23-.59.42-.18.18-.31.38-.39.58-.08.2-.11.41-.11.62s.04.42.11.63.17.41.28.61c.11.2.24.39.38.56.14.18.29.34.44.49l.72.7c.16.15.33.29.51.42s.38.25.59.36c.21.1.42.18.63.24.22.06.43.08.65.08.21,0,.42-.05.63-.13.21-.08.4-.22.58-.4.11-.1.21-.22.31-.35.1-.13.19-.26.26-.4.07-.14.13-.29.16-.44.04-.15.04-.3,0-.46l-1.36-1.35-1.21,1.24-.65-.64,1.93-1.98,2.25,2.17c.02.2.02.4,0,.6Z"/>
        <path d="M18.78,12.62l2.01-1.55c.28-.21.58-.38.9-.52s.64-.21.96-.22.63.04.93.17c.3.13.57.36.81.67.13.18.23.36.29.55s.08.37.08.56c0,.19-.04.37-.09.54s-.14.35-.25.55h.01c.2-.08.42-.13.66-.15.24-.02.46,0,.66.05.22.06.42.15.61.27.19.13.37.29.52.49.25.31.4.64.46.98.06.34.05.67-.03.99-.08.32-.22.63-.43.93-.2.29-.45.55-.73.78l-2.16,1.67-5.2-6.76ZM23.06,13.91c.16-.13.3-.27.41-.44.12-.17.2-.34.25-.53.05-.18.06-.37.04-.56-.03-.19-.11-.37-.25-.55-.15-.19-.31-.32-.48-.4s-.36-.11-.54-.11c-.19.01-.38.06-.57.14-.19.08-.37.19-.54.31l-1.17.9,1.65,2.15,1.2-.92ZM24.29,17.99l1.32-1.02c.18-.14.32-.3.44-.48.12-.18.2-.37.24-.57.04-.2.05-.4,0-.6s-.13-.4-.28-.59c-.14-.19-.31-.34-.49-.44-.18-.1-.37-.15-.57-.17-.2-.01-.4.02-.6.08s-.4.17-.58.3l-1.37,1.05,1.87,2.43Z"/>
        <path d="M30.08,15l-.94.53-4.2-7.43,2.41-1.36c.34-.18.68-.31,1.04-.38.35-.07.7-.07,1.03-.01.33.06.64.19.93.39.29.2.53.48.73.84.2.36.31.71.34,1.06.02.35-.02.68-.14.99-.12.31-.3.6-.54.87-.24.27-.53.5-.86.69l-1.46.83,1.68,2.98ZM29.43,10.42c.22-.13.4-.28.54-.45.15-.17.25-.35.32-.55s.09-.41.07-.63c-.02-.22-.1-.44-.22-.66-.13-.22-.28-.41-.46-.54-.18-.14-.37-.23-.57-.28-.21-.05-.42-.05-.65-.02-.22.04-.45.12-.67.24l-1.46.83,1.64,2.9,1.46-.83Z"/>
        <path d="M37.54,8.37c-.18-.12-.37-.21-.59-.26-.22-.04-.45-.06-.69-.06-.24,0-.47.01-.68.03-.32.02-.64.02-.98,0-.34-.02-.66-.07-.97-.16-.31-.09-.59-.23-.84-.43-.25-.19-.44-.46-.58-.8s-.18-.68-.13-1.01.15-.63.33-.91c.17-.28.39-.53.66-.75.27-.22.56-.39.88-.51.35-.13.7-.21,1.07-.22.37-.01.71.04,1.04.15.33.11.62.29.89.52.26.24.47.54.62.9l-1.04.41c-.12-.22-.26-.4-.41-.56-.16-.15-.33-.27-.52-.35-.19-.08-.4-.12-.62-.12s-.45.05-.69.14c-.19.08-.37.18-.53.3-.16.13-.29.27-.39.44-.1.17-.17.35-.19.54s0,.4.09.61c.09.23.23.4.4.51.17.11.37.19.59.23.21.04.44.06.67.05.23,0,.45-.02.65-.03.33-.02.67-.03,1.01-.02.35.01.68.07,1,.18.31.09.6.24.85.46s.45.49.59.85c.14.36.18.7.13,1.03-.05.33-.17.63-.36.9-.18.28-.41.52-.69.73s-.58.38-.9.5c-.38.15-.78.23-1.19.25-.42.02-.8-.04-1.17-.18-.32-.11-.61-.28-.85-.5-.25-.22-.45-.5-.59-.84l1.03-.4c.13.23.28.43.46.58.18.15.37.26.58.33.21.07.44.1.67.09.24-.01.48-.07.72-.17.2-.08.38-.18.55-.3.17-.12.31-.27.42-.43.11-.16.18-.34.21-.53s0-.4-.08-.62c-.1-.24-.23-.43-.41-.55Z"/>
      </g>
      <path d="M43.25,46.92c3.46,0,6.27,2.81,6.27,6.27s-2.81,6.27-6.27,6.27h-20.37c-3.46,0-6.27-2.81-6.27-6.27s2.81-6.27,6.27-6.27h20.37M43.25,46.17h-20.37c-3.88,0-7.02,3.14-7.02,7.02s3.14,7.02,7.02,7.02h20.37c3.88,0,7.02-3.14,7.02-7.02h0c0-3.88-3.14-7.02-7.02-7.02h0Z"/>
      <g>
        <path d="M24.06,54.07v.59h-.79v1.32h-.72v-1.32h-2.59v-.43l2.55-3.94h.77v3.78h.79ZM22.55,54.07v-2.82l-.12.22-1.68,2.6h1.79Z"/>
        <path d="M25.28,50.29h2.92v.7h-2.31l-.16,1.52c.11-.07.25-.12.4-.17.16-.05.34-.07.54-.07.26,0,.5.04.71.14.21.09.39.22.53.38.15.17.26.37.34.6s.12.49.12.78c0,.27-.04.52-.11.75-.07.23-.18.43-.33.6-.15.17-.33.3-.56.4-.22.09-.49.14-.79.14-.23,0-.45-.03-.66-.1-.21-.07-.39-.16-.55-.29-.16-.13-.29-.29-.4-.49-.1-.2-.17-.43-.19-.69h.69c.04.32.16.57.36.73.19.17.44.25.75.25.17,0,.32-.03.46-.09.13-.06.24-.15.34-.26.09-.11.16-.25.2-.41.05-.16.07-.34.07-.53,0-.18-.03-.34-.08-.5-.05-.15-.12-.29-.22-.4-.1-.11-.21-.2-.36-.27-.14-.07-.3-.1-.48-.1-.12,0-.22,0-.31.03-.09.02-.17.04-.24.07s-.14.07-.2.11c-.06.04-.12.09-.19.15l-.58-.15.29-2.84Z"/>
        <path d="M29.45,56.47l2.38-6.18h.64l-2.37,6.18h-.65Z"/>
        <path d="M35.16,55.98v-4.77l-1.49.57v-.66l2.15-.83h.06v5.69h-.72Z"/>
        <path d="M41.39,54.76c-.08.28-.2.51-.36.71-.16.19-.35.34-.57.44-.23.1-.49.15-.78.15s-.55-.05-.78-.15-.42-.24-.58-.44c-.16-.19-.28-.43-.36-.71-.08-.28-.12-.6-.12-.96v-1.33c0-.36.04-.68.12-.96.08-.28.2-.52.36-.71.16-.19.35-.34.58-.44.23-.1.49-.15.78-.15s.55.05.78.15c.23.1.42.25.58.44.16.19.28.43.36.71.08.28.12.6.12.96v1.33c0,.36-.04.68-.12.96ZM40.77,51.96c-.02-.19-.06-.35-.11-.5s-.13-.27-.22-.36c-.09-.1-.2-.17-.33-.22-.13-.05-.28-.07-.45-.07s-.32.03-.46.08c-.13.05-.24.13-.33.23-.11.13-.19.29-.24.49-.05.2-.08.44-.08.7v1.35l2.21-1.7ZM40.79,53.15v-.5l-2.21,1.69c.02.19.06.36.12.5s.14.26.23.36c.09.09.2.16.32.2.12.04.27.07.42.07.16,0,.31-.03.44-.07.13-.05.24-.12.32-.21.12-.13.21-.29.26-.5.06-.21.08-.45.08-.73v-.8Z"/>
        <path d="M45.79,54.76c-.08.28-.2.51-.36.71-.16.19-.35.34-.57.44-.23.1-.49.15-.78.15s-.55-.05-.78-.15-.42-.24-.58-.44c-.16-.19-.28-.43-.36-.71-.08-.28-.12-.6-.12-.96v-1.33c0-.36.04-.68.12-.96.08-.28.2-.52.36-.71.16-.19.35-.34.58-.44.23-.1.49-.15.78-.15s.55.05.78.15c.23.1.42.25.58.44.16.19.28.43.36.71.08.28.12.6.12.96v1.33c0,.36-.04.68-.12.96ZM45.17,51.96c-.02-.19-.06-.35-.11-.5s-.13-.27-.22-.36c-.09-.1-.2-.17-.33-.22-.13-.05-.28-.07-.45-.07s-.32.03-.46.08c-.13.05-.24.13-.33.23-.11.13-.19.29-.24.49-.05.2-.08.44-.08.7v1.35l2.21-1.7ZM45.19,53.15v-.5l-2.21,1.69c.02.19.06.36.12.5s.14.26.23.36c.09.09.2.16.32.2.12.04.27.07.42.07.16,0,.31-.03.44-.07.13-.05.24-.12.32-.21.12-.13.21-.29.26-.5.06-.21.08-.45.08-.73v-.8Z"/>
      </g>
      <path d="M67.97,46.92c3.46,0,6.27,2.81,6.27,6.27s-2.81,6.27-6.27,6.27h-9.13c-3.46,0-6.27-2.81-6.27-6.27s2.81-6.27,6.27-6.27h9.13M67.97,46.17h-9.13c-3.88,0-7.02,3.14-7.02,7.02s3.14,7.02,7.02,7.02h9.13c3.88,0,7.02-3.14,7.02-7.02s-3.14-7.02-7.02-7.02h0Z"/>
      <g>
        <path d="M61,54.07v.59h-.79v1.32h-.72v-1.32h-2.59v-.43l2.55-3.94h.77v3.78h.79ZM59.48,54.07v-2.82l-.12.22-1.68,2.6h1.79Z"/>
        <path d="M62.22,50.29h2.92v.7h-2.31l-.16,1.52c.11-.07.25-.12.4-.17.16-.05.34-.07.54-.07.26,0,.5.04.71.14.21.09.39.22.53.38.15.17.26.37.34.6s.12.49.12.78c0,.27-.04.52-.11.75-.07.23-.18.43-.33.6-.15.17-.33.3-.56.4-.22.09-.49.14-.79.14-.23,0-.45-.03-.66-.1-.21-.07-.39-.16-.55-.29-.16-.13-.29-.29-.4-.49-.1-.2-.17-.43-.19-.69h.69c.04.32.16.57.36.73.19.17.44.25.75.25.17,0,.32-.03.46-.09.13-.06.24-.15.34-.26.09-.11.16-.25.2-.41.05-.16.07-.34.07-.53,0-.18-.03-.34-.08-.5-.05-.15-.12-.29-.22-.4-.1-.11-.21-.2-.36-.27-.14-.07-.3-.1-.48-.1-.12,0-.22,0-.31.03-.09.02-.17.04-.24.07s-.14.07-.2.11c-.06.04-.12.09-.19.15l-.58-.15.29-2.84Z"/>
        <path d="M65.64,50.89c.05-.13.11-.25.2-.35.09-.1.19-.18.32-.24s.28-.09.45-.09.32.03.46.09.24.14.33.24c.09.1.15.22.2.35.05.13.07.28.07.42v.3c0,.15-.02.29-.07.42s-.11.25-.2.35c-.09.1-.2.18-.33.24s-.28.09-.45.09-.32-.03-.45-.09-.24-.14-.33-.24c-.09-.1-.16-.21-.2-.35s-.07-.27-.07-.42v-.3c0-.15.02-.29.07-.42ZM66.14,51.85c.02.07.05.14.09.2.04.06.09.11.16.14s.14.05.24.05.17-.02.23-.05c.06-.04.12-.08.15-.14.04-.06.07-.12.09-.2s.03-.15.03-.23v-.3c0-.08,0-.16-.03-.24-.02-.08-.05-.15-.09-.21-.04-.06-.09-.1-.16-.14s-.14-.05-.24-.05-.17.02-.23.05-.12.08-.15.14c-.04.06-.07.13-.09.21-.02.08-.03.16-.03.24v.3c0,.08,0,.16.03.23ZM66.52,55l2.21-4.05.43.24-2.21,4.05-.43-.24ZM67.99,54.24c.05-.13.11-.25.2-.35s.2-.18.33-.24.28-.09.45-.09.32.03.45.09.24.14.33.24.16.22.2.35.07.27.07.42v.3c0,.15-.02.29-.07.42s-.11.25-.2.35c-.09.1-.2.18-.33.24s-.28.09-.45.09-.32-.03-.46-.09-.24-.14-.33-.24c-.09-.1-.16-.21-.2-.35s-.07-.27-.07-.42v-.3c0-.15.02-.29.07-.42ZM68.49,55.2c.02.08.05.14.09.2.04.06.09.11.16.14s.14.05.24.05.17-.02.23-.05.12-.08.15-.14c.04-.06.07-.12.09-.2.02-.08.03-.15.03-.23v-.3c0-.08,0-.16-.03-.23-.02-.08-.05-.14-.09-.2-.04-.06-.1-.1-.16-.14s-.14-.05-.23-.05-.17.02-.24.05c-.06.04-.12.08-.15.14-.04.06-.07.13-.09.2-.02.08-.03.15-.03.23v.3c0,.08,0,.16.03.23Z"/>
      </g>
      <path d="M83.55,46.92c3.46,0,6.27,2.81,6.27,6.27s-2.81,6.27-6.27,6.27-6.27-2.81-6.27-6.27,2.81-6.27,6.27-6.27M83.55,46.17c-3.88,0-7.02,3.14-7.02,7.02s3.14,7.02,7.02,7.02,7.02-3.14,7.02-7.02-3.14-7.02-7.02-7.02h0Z"/>
      <g>
        <line class="cls-1" x1="80.51" y1="53.19" x2="86.59" y2="53.19"/>
        <line class="cls-1" x1="83.55" y1="56.23" x2="83.55" y2="50.15"/>
      </g>
      <g>
        <path d="M43.94,32.24c-.08.28-.21.51-.37.7-.16.19-.35.33-.58.43s-.49.15-.78.15-.54-.05-.77-.14c-.23-.1-.42-.24-.58-.43-.16-.19-.29-.42-.37-.7-.09-.28-.13-.6-.13-.97v-1.35c0-.37.04-.69.13-.97.08-.28.21-.51.37-.71.16-.19.35-.33.58-.43s.48-.15.77-.15.55.05.78.15.42.24.58.43c.16.19.28.43.37.71.09.28.13.6.13.97v1.35c0,.37-.04.69-.13.97ZM43.05,29.62c-.01-.21-.04-.39-.08-.54-.04-.15-.1-.27-.19-.37-.06-.08-.15-.14-.24-.17-.1-.04-.21-.06-.33-.06-.13,0-.25.02-.35.07s-.18.12-.25.21c-.08.1-.14.23-.17.4s-.05.36-.05.58v1.12l1.66-1.25ZM43.05,30.75v-.39l-1.66,1.24c.01.18.03.33.07.47.04.13.09.25.15.34.07.1.15.18.26.23s.22.08.36.08.25-.02.35-.07c.1-.04.18-.12.25-.21.08-.11.14-.24.17-.41.04-.17.06-.36.06-.58v-.69Z"/>
        <path d="M48.34,32.24c-.08.28-.21.51-.37.7-.16.19-.35.33-.58.43s-.49.15-.78.15-.54-.05-.77-.14c-.23-.1-.42-.24-.58-.43-.16-.19-.29-.42-.37-.7-.09-.28-.13-.6-.13-.97v-1.35c0-.37.04-.69.13-.97.08-.28.21-.51.37-.71.16-.19.35-.33.58-.43s.48-.15.77-.15.55.05.78.15.42.24.58.43c.16.19.28.43.37.71.09.28.13.6.13.97v1.35c0,.37-.04.69-.13.97ZM47.45,29.62c-.01-.21-.04-.39-.08-.54-.04-.15-.1-.27-.19-.37-.06-.08-.15-.14-.24-.17-.1-.04-.21-.06-.33-.06-.13,0-.25.02-.35.07s-.18.12-.25.21c-.08.1-.14.23-.17.4s-.05.36-.05.58v1.12l1.66-1.25ZM47.45,30.75v-.39l-1.66,1.24c.01.18.03.33.07.47.04.13.09.25.15.34.07.1.15.18.26.23s.22.08.36.08.25-.02.35-.07c.1-.04.18-.12.25-.21.08-.11.14-.24.17-.41.04-.17.06-.36.06-.58v-.69Z"/>
        <path d="M50.81,30.15c.16,0,.3-.02.42-.07.12-.04.22-.11.29-.19.07-.07.12-.16.16-.26.04-.1.05-.21.05-.33s-.02-.24-.05-.34c-.04-.1-.09-.18-.16-.25-.07-.07-.15-.12-.26-.16-.11-.04-.23-.05-.37-.05-.12,0-.23.02-.33.05-.1.03-.19.08-.26.14-.08.07-.14.14-.18.23-.04.09-.06.19-.06.31h-1.01c0-.23.05-.44.14-.63.09-.19.22-.36.38-.5.16-.13.36-.24.58-.32.22-.08.46-.12.72-.12.28,0,.53.04.76.1.23.07.43.17.59.31.16.14.29.31.38.51.09.2.13.43.13.7,0,.12-.02.24-.05.36-.04.12-.09.23-.16.34-.07.11-.16.21-.26.3-.11.09-.23.17-.37.23.16.06.31.13.42.22s.22.19.29.31c.07.12.13.24.16.38.04.13.05.27.05.42,0,.27-.05.5-.15.71-.1.21-.24.38-.41.52-.17.14-.38.25-.62.33s-.5.11-.77.11c-.24,0-.48-.03-.71-.1-.23-.07-.43-.17-.61-.3-.18-.13-.32-.3-.42-.5-.1-.2-.16-.44-.16-.71h1.01c0,.12.02.22.07.32s.11.18.19.25c.08.07.17.13.28.17s.23.06.37.06c.15,0,.28-.02.39-.06.12-.04.21-.1.29-.18.08-.07.14-.16.18-.26s.06-.23.06-.36c0-.16-.02-.29-.07-.41s-.12-.21-.2-.28c-.09-.08-.2-.13-.32-.17s-.26-.05-.42-.05h-.58v-.79h.58Z"/>
        <path d="M55.04,33.44h-1.06l2.25-4.86h-2.9v-.83h3.96v.56l-2.25,5.12Z"/>
        <path d="M61.8,31.37v.82h-.69v1.25h-1.01v-1.25h-2.41l-.04-.62,2.43-3.81h1.03v3.62h.69ZM60.1,31.37v-2.26l-.11.2-1.33,2.07h1.43Z"/>
        <path d="M65.87,29.72c-.05.14-.12.27-.21.39-.06.08-.14.16-.22.22-.08.07-.18.13-.28.18.11.05.21.11.3.17s.18.14.25.22c.12.13.21.28.27.44.06.17.1.34.1.54,0,.27-.05.5-.15.7s-.23.37-.4.51c-.17.14-.37.24-.6.31s-.48.11-.74.11-.52-.04-.75-.11-.43-.17-.6-.31c-.17-.13-.3-.3-.4-.51s-.15-.44-.15-.7c0-.16.02-.3.06-.45s.1-.27.19-.39c.08-.11.17-.22.29-.31.11-.09.24-.17.38-.24-.12-.06-.23-.13-.32-.22-.1-.08-.18-.18-.24-.28-.07-.11-.12-.22-.16-.35-.04-.13-.06-.26-.06-.4,0-.26.04-.48.13-.68s.21-.36.37-.5c.15-.13.34-.24.55-.31.21-.07.45-.1.71-.1s.49.04.7.1c.22.07.4.17.56.31.16.14.28.3.37.5s.13.42.13.68c0,.16-.03.31-.08.46ZM65,31.46c-.04-.11-.1-.2-.18-.29-.08-.08-.17-.14-.28-.18-.11-.04-.23-.06-.36-.06s-.25.02-.36.06c-.11.04-.2.1-.27.18-.08.08-.13.18-.18.29s-.06.23-.06.37.02.27.06.38c.04.11.1.2.19.28.08.07.17.12.27.16.11.04.22.06.36.06s.24-.02.35-.06c.11-.04.2-.1.27-.17.08-.08.13-.17.18-.28.04-.11.06-.23.06-.37s-.02-.26-.06-.37ZM64.89,28.97c-.04-.1-.09-.18-.15-.26-.07-.07-.15-.12-.24-.16s-.2-.06-.31-.06-.22.02-.31.05c-.09.04-.17.09-.24.16-.06.07-.11.16-.14.26-.03.1-.05.21-.05.33s.02.23.05.33c.04.1.09.19.15.26.06.07.14.13.24.17s.2.06.32.06.22-.02.31-.06.17-.09.24-.17c.06-.07.12-.16.15-.26.04-.1.05-.21.05-.33s-.02-.23-.05-.33Z"/>
      </g>
      <g>
        <path d="M45.94,80.34c-.1,0-.2-.01-.29-.03-.1-.02-.2-.05-.29-.09-.09-.03-.17-.08-.25-.13-.09-.06-.16-.12-.23-.19-.28-.28-.44-.67-.44-1.06s.16-.78.44-1.06c.56-.56,1.56-.56,2.12,0,.28.28.44.66.44,1.06s-.16.78-.44,1.06c-.28.28-.67.44-1.06.44Z"/>
        <path d="M51.72,78.84c0-.83.67-1.5,1.5-1.5h0c.82,0,1.5.67,1.5,1.5h0c0,.83-.68,1.5-1.5,1.5h0c-.83,0-1.5-.67-1.5-1.5Z"/>
        <path d="M60.49,80.34c-.1,0-.19-.01-.29-.03-.1-.02-.19-.05-.28-.09-.09-.03-.18-.08-.26-.13-.08-.06-.16-.12-.23-.19-.28-.28-.44-.67-.44-1.06s.16-.78.44-1.06c.07-.07.15-.13.23-.19.08-.05.17-.1.26-.14s.18-.06.28-.08c.19-.04.39-.04.59,0,.09.02.19.04.28.08s.17.09.26.14c.08.06.15.12.22.19.28.28.44.66.44,1.06,0,.1,0,.19-.03.29-.02.1-.05.19-.08.28-.04.09-.09.18-.14.26-.06.08-.12.16-.19.23s-.14.13-.22.19c-.09.05-.17.1-.26.13-.09.04-.19.07-.28.09-.1.02-.2.03-.3.03Z"/>
      </g>
      <g>
        <path d="M45.94,75.13c-.1,0-.2-.01-.29-.03-.1-.02-.2-.05-.29-.09-.09-.03-.17-.08-.25-.13-.09-.06-.16-.12-.23-.19-.28-.28-.44-.67-.44-1.06s.16-.78.44-1.06c.56-.56,1.56-.56,2.12,0,.28.28.44.66.44,1.06s-.16.78-.44,1.06c-.28.28-.67.44-1.06.44Z"/>
        <path d="M51.72,73.63c0-.83.67-1.5,1.5-1.5h0c.82,0,1.5.67,1.5,1.5h0c0,.83-.68,1.5-1.5,1.5h0c-.83,0-1.5-.67-1.5-1.5Z"/>
        <path d="M60.49,75.13c-.1,0-.19-.01-.29-.03-.1-.02-.19-.05-.28-.09-.09-.03-.18-.08-.26-.13-.08-.06-.16-.12-.23-.19-.28-.28-.44-.67-.44-1.06s.16-.78.44-1.06c.07-.07.15-.13.23-.19.08-.05.17-.1.26-.14s.18-.06.28-.08c.19-.04.39-.04.59,0,.09.02.19.04.28.08s.17.09.26.14c.08.06.15.12.22.19.28.28.44.66.44,1.06,0,.1,0,.19-.03.29-.02.1-.05.19-.08.28-.04.09-.09.18-.14.26-.06.08-.12.16-.19.23s-.14.13-.22.19c-.09.05-.17.1-.26.13-.09.04-.19.07-.28.09-.1.02-.2.03-.3.03Z"/>
      </g>
    </g>
  </g>
</svg>