<?xml version="1.0" encoding="UTF-8"?>
<svg id="Layer_2" data-name="Layer 2" xmlns="http://www.w3.org/2000/svg" viewBox="0 0 149.26 147.4">
  <defs>
    <style>
      .cls-1 {
        fill: none;
        stroke: #000;
        stroke-miterlimit: 10;
        stroke-width: .75px;
      }
    </style>
  </defs>
  <g id="Layer_1-2" data-name="Layer 1">
    <g>
      <g>
        <path d="M26.4,51.28c-.09-.23-.25-.45-.47-.66-.23-.2-.52-.38-.88-.55-.36-.17-.8-.32-1.34-.47-.83-.23-1.55-.5-2.18-.82-.63-.32-1.14-.67-1.53-1.06s-.7-.81-.9-1.27c-.2-.46-.3-.97-.3-1.52,0-.63.13-1.2.4-1.71s.64-.95,1.11-1.31,1.03-.64,1.67-.84c.64-.19,1.34-.29,2.09-.29s1.49.11,2.14.34c.65.23,1.2.54,1.67.94.46.41.83.9,1.09,1.46s.39,1.18.39,1.85h-2.81c-.01-.33-.07-.64-.18-.92-.11-.28-.26-.52-.47-.73-.21-.2-.47-.35-.78-.47-.31-.11-.67-.17-1.09-.17-.38,0-.72.05-1.02.14-.3.09-.55.22-.75.38-.21.17-.36.37-.47.6-.11.23-.16.48-.16.74,0,.28.07.53.21.76.14.23.34.43.61.61.27.18.59.35.97.5.38.15.81.29,1.29.42.51.14,1,.32,1.47.52s.89.44,1.28.71c.59.44,1.06.95,1.4,1.53s.52,1.25.52,2.01c0,.66-.13,1.24-.39,1.75-.26.51-.63.94-1.09,1.29-.46.36-1.02.62-1.66.8-.64.18-1.34.27-2.1.27s-1.48-.11-2.21-.33c-.73-.22-1.36-.55-1.9-.98-.51-.42-.92-.92-1.21-1.5-.3-.57-.45-1.25-.45-2.02h2.83c.01.45.09.84.24,1.16s.34.58.6.79c.25.21.56.36.92.45.36.1.75.14,1.18.14.38,0,.72-.04,1.02-.13.3-.09.55-.21.75-.37s.36-.35.47-.57c.11-.22.16-.47.16-.73s-.05-.52-.14-.75Z"/>
        <path d="M40.22,53.28c-.28.6-.65,1.11-1.11,1.54s-1.02.75-1.66.98-1.35.34-2.13.34c-.62,0-1.18-.08-1.71-.24-.52-.16-.99-.39-1.41-.69-.38-.28-.72-.62-1.02-1.01-.3-.4-.55-.83-.75-1.31-.2-.48-.35-1-.46-1.58-.11-.57-.16-1.18-.16-1.83v-2.01c0-.6.05-1.17.14-1.72.1-.54.24-1.05.43-1.51.22-.57.51-1.07.86-1.52s.76-.82,1.21-1.13c.4-.26.85-.46,1.33-.6.48-.14,1-.21,1.55-.21.82,0,1.55.12,2.19.35.64.23,1.18.56,1.64.99s.81.96,1.07,1.58.42,1.32.49,2.1h-2.87c-.03-.44-.09-.83-.2-1.17-.11-.33-.26-.62-.46-.84-.21-.22-.46-.38-.76-.5-.3-.11-.67-.17-1.09-.17-.23,0-.44.02-.63.07-.19.05-.37.12-.54.21-.28.16-.52.4-.71.7-.19.3-.35.66-.47,1.06-.09.31-.15.66-.2,1.04-.04.38-.06.79-.06,1.23v2.03c0,.59.03,1.13.1,1.59.06.47.17.88.3,1.23.1.24.21.45.34.64.13.18.29.34.46.46.18.14.39.24.62.3.23.07.48.1.76.1.38,0,.71-.05,1.02-.14s.56-.25.77-.45.38-.47.5-.79.2-.71.23-1.16h2.88c-.05.75-.21,1.43-.49,2.03Z"/>
        <path d="M44.75,52.81l-.88,3.12h-3.04l4.89-14.93h2.61l4.8,14.93h-3.04l-.87-3.12h-4.48ZM48.56,50.36l-1.53-5.5-1.57,5.5h3.1Z"/>
        <path d="M60.42,55.93l-4.15-9.63v9.63h-2.9v-14.93h2.9l4.12,9.59v-9.59h2.9v14.93h-2.87Z"/>
      </g>
      <g>
        <path d="M76.47.99c.04-.09.1-.17.17-.24s.15-.12.25-.15c.1-.04.21-.05.33-.05.12,0,.23.03.33.07.1.04.18.1.25.17.07.07.12.15.15.25.03.1.05.2.04.31v.23c-.01.11-.03.21-.07.31-.04.09-.09.17-.16.24-.07.07-.16.12-.26.15-.1.04-.21.05-.33.05-.12,0-.23-.03-.33-.07-.1-.04-.18-.1-.24-.17-.07-.07-.12-.15-.15-.25-.04-.09-.05-.2-.05-.31v-.23c.01-.11.03-.21.08-.31Z"/>
        <path d="M90.44,4.9c-.14.26-.3.46-.49.62-.19.16-.41.26-.65.31-.24.05-.5.05-.79,0-.28-.06-.53-.16-.73-.3-.21-.14-.37-.32-.48-.55-.12-.22-.19-.47-.22-.76-.03-.29,0-.61.07-.97l.26-1.31c.07-.35.18-.66.31-.92.14-.26.3-.46.5-.62.19-.16.41-.26.65-.32.24-.05.51-.05.79,0,.29.06.53.16.73.3.2.14.36.33.48.55.12.22.19.48.21.77.03.29,0,.61-.07.97l-.27,1.31c-.07.35-.18.66-.31.92ZM90.17,3.2s.02-.11.04-.22.04-.2.05-.27l-2.5,1.22c-.01.19,0,.36.02.52s.08.29.16.4c.07.1.16.19.27.26.11.07.25.12.4.15.16.03.31.04.44.01.14-.02.26-.07.36-.15.14-.1.26-.25.36-.44s.17-.42.23-.7l.16-.79ZM90.39,2.03c.02-.19.01-.36,0-.51s-.07-.28-.14-.4c-.07-.11-.16-.21-.28-.28-.12-.07-.26-.13-.42-.16-.17-.03-.32-.04-.46-.01-.14.03-.26.08-.37.16-.13.1-.25.25-.34.44s-.17.41-.22.67l-.19.93c-.01.06-.03.13-.04.19-.01.06-.03.13-.04.2l2.51-1.22Z"/>
        <path d="M92.6,5.82c.12-.08.27-.1.45-.05.18.05.3.14.37.27s.08.27.04.42c-.04.15-.12.26-.24.33-.12.08-.27.09-.45.04-.18-.05-.3-.14-.37-.26-.06-.13-.08-.26-.04-.41.04-.15.12-.26.24-.34Z"/>
        <path d="M98.84,7.39c-.17.24-.36.42-.57.55-.21.13-.44.21-.68.23-.25.02-.51-.02-.78-.11-.27-.09-.5-.22-.69-.39s-.32-.37-.41-.6c-.09-.23-.13-.49-.12-.78.01-.29.07-.61.19-.95l.43-1.26c.12-.34.26-.63.43-.87s.36-.42.57-.56c.21-.13.44-.21.69-.23.25-.02.51.01.78.11.28.09.51.22.69.39s.32.37.41.6c.09.23.12.5.11.79s-.07.61-.19.95l-.43,1.26c-.12.34-.26.63-.43.87ZM98.79,5.67s.04-.11.07-.21c.04-.11.07-.19.09-.26l-2.64.89c-.04.19-.05.36-.04.52,0,.16.05.29.11.41.05.11.13.21.24.29.1.08.23.15.38.2.16.05.3.08.44.07s.26-.04.38-.1c.15-.08.29-.21.41-.39.12-.18.22-.4.31-.66l.26-.76ZM99.16,4.53c.04-.18.06-.35.05-.51s-.03-.29-.09-.41c-.05-.12-.13-.23-.24-.32-.11-.09-.24-.16-.4-.21-.16-.06-.32-.08-.46-.07s-.27.05-.39.11c-.14.09-.27.22-.39.39s-.22.39-.3.64l-.31.9c-.02.06-.04.12-.06.19s-.04.12-.06.19l2.64-.9Z"/>
        <path d="M101.73,6.41c.17.07.33.11.47.11.15,0,.28-.01.4-.05.12-.04.22-.11.32-.2.09-.09.16-.21.22-.34.06-.16.1-.3.11-.44,0-.13-.01-.26-.06-.37-.05-.11-.12-.2-.22-.29-.1-.08-.22-.16-.37-.22-.14-.06-.28-.09-.41-.1-.13,0-.26.01-.37.06-.12.04-.22.11-.31.21-.09.09-.17.21-.22.34l-.67-.28c.08-.2.2-.37.35-.52.15-.15.32-.25.52-.33.2-.07.41-.1.64-.1.23,0,.47.06.71.16.24.1.44.22.61.36.17.14.3.31.39.49.09.18.13.38.13.6,0,.22-.05.45-.15.69-.04.1-.1.2-.18.3-.08.09-.17.18-.27.25-.11.08-.23.14-.37.19-.14.05-.29.07-.46.08.15.13.26.26.34.39.08.14.13.27.15.41.02.14.02.27,0,.41-.02.13-.06.26-.11.38-.1.25-.23.45-.4.6-.16.16-.34.27-.55.34-.2.07-.42.1-.65.08-.23-.01-.46-.07-.7-.17-.23-.09-.44-.22-.61-.37s-.31-.32-.41-.5c-.1-.19-.15-.39-.17-.6s.03-.44.12-.67l.67.27c-.06.14-.08.27-.08.41,0,.13.03.26.08.37.05.12.13.22.24.31.11.09.24.17.39.23.15.06.3.1.44.11.14.01.27,0,.39-.05.12-.05.23-.12.33-.22.1-.1.18-.24.25-.4.07-.16.1-.32.09-.46,0-.14-.04-.27-.1-.39-.07-.12-.16-.23-.28-.32-.12-.1-.27-.18-.43-.25l-.48-.2.22-.54.48.2Z"/>
        <path d="M112.82,9.91c.1-.1.21-.19.33-.27.12-.08.24-.15.38-.21.13-.06.27-.1.41-.12l.19.45c-.2.09-.38.2-.53.33-.15.13-.29.29-.41.48l-.31.49-.6-.37.3-.48c.06-.1.15-.21.24-.3ZM113.89,10.58c.1-.1.21-.19.33-.27.12-.08.24-.15.38-.21s.27-.1.42-.12l.19.45c-.2.09-.38.2-.53.33-.15.13-.29.29-.41.48l-.31.49-.6-.37.3-.48c.07-.1.15-.21.24-.3Z"/>
        <path d="M123.04,21.47l-.39.44-.59-.52-.87.99-.54-.48.87-.99-1.95-1.72.28-.32,4.52-1.27.58.51-2.5,2.83.59.52ZM121.9,20.47l1.86-2.11-.23.09-2.98.84,1.34,1.19Z"/>
        <path d="M126.18,24.6l-.42.42-.56-.56-.93.93-.51-.51.93-.93-1.83-1.83.3-.3,4.59-.99.54.54-2.67,2.67.56.56ZM125.11,23.52l1.99-1.99-.24.07-3.02.65,1.27,1.27Z"/>
        <path d="M131.7,30.14l.48-.34,2.46,3.45-.48.34-2.46-3.45Z"/>
        <path d="M134.28,33.77l.5-.31,2.24,3.6-.5.31-2.24-3.6Z"/>
        <path d="M136.64,37.57l.52-.28,2.01,3.73-.52.28-2.01-3.73Z"/>
        <path d="M138.76,41.53l.54-.25,1.77,3.85-.54.25-1.77-3.85Z"/>
        <path d="M140.61,45.59l.55-.21,1.52,3.96-.55.21-1.52-3.96Z"/>
        <path d="M142.21,49.77l.56-.18,1.27,4.04-.56.18-1.27-4.04Z"/>
        <path d="M143.54,54.03l.57-.14,1.01,4.12-.57.14-1.01-4.12Z"/>
        <path d="M144.61,58.38l.58-.1.75,4.17-.58.1-.75-4.17Z"/>
        <path d="M143.57,72.21l4.77-.08-.59-1.48h.66s.86,2.13.86,2.13v.06s-5.69.09-5.69.09v-.72Z"/>
        <path d="M147.07,78.48c-.16-.08-.3-.18-.42-.31-.06-.06-.11-.13-.16-.21-.05-.08-.09-.16-.13-.24-.07.14-.15.27-.25.38-.1.11-.21.21-.33.29-.12.08-.26.13-.4.17-.14.04-.29.05-.45.05-.26-.01-.48-.07-.68-.18-.2-.11-.36-.24-.48-.41-.13-.17-.23-.37-.29-.59-.06-.22-.08-.46-.07-.71.01-.25.06-.49.14-.71.08-.22.19-.4.34-.56.14-.16.32-.28.52-.36.21-.08.44-.12.7-.11.16,0,.31.04.45.09.14.05.27.12.38.21.11.09.21.19.3.32s.16.26.21.41c.07-.12.15-.23.24-.33.09-.1.19-.18.31-.24.11-.06.23-.11.36-.15s.26-.05.4-.04c.25.01.47.06.66.16.19.09.35.22.47.37.13.15.22.33.28.54.06.21.08.43.07.67-.01.24-.06.46-.14.66-.08.2-.19.38-.33.52-.14.14-.31.25-.51.33-.2.08-.42.11-.67.1-.19-.01-.37-.06-.53-.13ZM145.42,77.84c.13-.05.25-.12.35-.21.1-.09.18-.2.24-.33.06-.13.09-.28.1-.44,0-.16-.01-.31-.06-.45-.05-.14-.11-.25-.2-.35-.09-.1-.2-.18-.33-.23-.13-.06-.28-.09-.43-.1-.16,0-.31.01-.44.05-.13.04-.24.11-.34.2-.09.09-.17.2-.22.33-.05.13-.08.28-.09.45,0,.16,0,.31.05.44.04.13.1.25.19.35.08.1.19.18.32.24.13.06.27.09.43.1.16,0,.31-.01.44-.06ZM148.02,77.84c.12-.04.23-.1.32-.18.09-.08.16-.18.22-.29.05-.12.08-.24.09-.38,0-.14,0-.27-.05-.39-.04-.12-.1-.22-.18-.31-.08-.09-.18-.16-.3-.21s-.25-.08-.4-.09c-.15,0-.28,0-.4.05-.12.04-.22.1-.31.18-.09.08-.16.18-.21.29-.05.11-.08.24-.09.38,0,.14,0,.27.05.39s.1.22.18.31c.08.09.18.16.29.21.12.05.25.08.39.09.14,0,.28,0,.4-.05Z"/>
        <path d="M146.83,89.29c.13.06.25.13.36.22.12.08.22.18.32.29.1.11.18.22.25.35l-.36.32c-.15-.16-.32-.29-.49-.39-.17-.1-.37-.18-.59-.22l-.57-.12.15-.69.56.12c.12.03.24.07.37.13ZM147.1,88.05c.13.06.25.13.36.22.11.08.22.18.32.29.1.11.18.22.25.35l-.36.33c-.15-.16-.32-.29-.49-.39-.18-.1-.37-.18-.59-.22l-.57-.12.15-.69.56.12c.12.03.24.07.37.13Z"/>
        <path d="M139.06,101.03c-.23-.18-.4-.38-.52-.6-.12-.22-.18-.45-.19-.7s.04-.51.15-.78c.11-.27.25-.49.43-.67s.38-.3.62-.38c.24-.08.5-.1.79-.07s.6.11.94.25l1.24.5c.34.14.62.29.85.48.23.18.4.38.52.6.12.22.18.45.19.7,0,.25-.04.51-.15.78-.11.27-.25.49-.43.67-.18.17-.39.3-.62.37-.24.07-.5.09-.79.07-.29-.03-.6-.11-.94-.25l-1.24-.5c-.34-.14-.62-.29-.85-.48ZM140.79,101.08s.11.04.21.08c.1.04.19.08.26.1l-.74-2.68c-.18-.05-.36-.07-.51-.07-.16,0-.3.03-.42.08-.12.05-.22.12-.31.22-.09.1-.16.22-.22.37-.06.15-.09.3-.09.43s.02.26.08.38c.07.16.2.3.37.43.17.13.38.25.64.35l.75.3ZM141.9,101.51c.18.05.35.08.5.08s.29-.02.42-.07c.12-.04.23-.12.33-.22.09-.1.17-.23.24-.39.06-.16.1-.31.1-.45,0-.14-.03-.27-.09-.4-.08-.15-.2-.29-.37-.41s-.37-.24-.62-.34l-.88-.36c-.06-.02-.12-.05-.18-.07s-.12-.05-.18-.07l.75,2.69Z"/>
        <path d="M137.2,104.98c-.22-.2-.38-.41-.48-.63-.11-.22-.16-.46-.15-.71s.08-.5.2-.77c.12-.26.28-.47.47-.64.19-.16.4-.28.65-.33.24-.06.5-.07.79-.02s.6.15.92.3l1.2.58c.33.16.6.33.81.53.22.2.38.41.48.63.11.22.16.46.15.71s-.07.5-.2.76c-.13.26-.29.48-.47.64-.19.16-.4.27-.65.33-.24.06-.51.06-.79.02-.29-.05-.6-.15-.92-.3l-1.2-.58c-.33-.16-.6-.33-.81-.53ZM138.92,105.14s.1.05.2.1.18.09.25.12l-.57-2.73c-.18-.06-.35-.1-.51-.1-.16,0-.3.01-.42.06-.12.04-.22.11-.32.2s-.18.21-.24.35c-.07.15-.11.29-.12.43s0,.26.05.39c.06.16.18.31.34.45.16.14.37.27.62.39l.73.35ZM140,105.64c.18.06.34.1.5.11.15.01.29,0,.42-.04.13-.04.24-.1.34-.2.1-.09.19-.22.26-.37.07-.16.12-.3.12-.45,0-.14-.01-.28-.06-.4-.07-.15-.18-.3-.34-.43-.16-.13-.36-.26-.6-.38l-.86-.41c-.06-.03-.12-.06-.18-.08s-.12-.06-.18-.09l.58,2.73Z"/>
        <path d="M135.82,105.03l.45.25.9,2.64c.08.24.16.44.23.6.07.17.14.31.22.43.07.12.15.22.23.29.08.08.17.14.27.2.12.07.25.11.38.13.13.02.26.01.38-.02.12-.03.24-.09.34-.17.11-.08.2-.19.28-.33.09-.17.15-.32.17-.47s0-.29-.03-.41c-.04-.13-.12-.25-.22-.36-.1-.11-.23-.21-.39-.29l.35-.63c.21.12.39.26.53.44.14.18.25.37.31.59.06.21.08.44.05.69-.03.24-.12.49-.26.75-.13.23-.28.43-.46.58-.17.15-.36.25-.55.31-.2.06-.4.08-.6.05-.21-.02-.41-.09-.61-.2-.15-.08-.28-.19-.4-.32s-.22-.28-.32-.44c-.09-.17-.18-.34-.25-.53-.07-.19-.14-.38-.21-.59l-.7-2.14-1.39,2.49-.51-.29,1.82-3.25Z"/>
        <path d="M131.55,117.81c.05.09.08.18.09.28,0,.09,0,.19-.03.29-.03.1-.08.2-.16.29-.08.1-.16.17-.25.22s-.19.08-.28.1c-.09.01-.19,0-.29-.03-.1-.03-.19-.08-.28-.15l-.18-.14c-.09-.07-.16-.15-.21-.24-.05-.09-.08-.18-.09-.27-.01-.1,0-.2.03-.3.03-.1.09-.2.16-.29.08-.1.16-.17.25-.22s.18-.08.28-.09c.1-.01.19,0,.29.03s.19.08.28.15l.18.14c.09.07.16.15.21.24Z"/>
        <path d="M120.62,124.52l3.17,3.56.73-1.41.44.49-1.05,2.05-.04.04-3.79-4.24.54-.48Z"/>
        <path d="M118.78,126.14l.32.41-.19,2.78c-.02.25-.02.46-.02.65,0,.18.01.34.03.48.02.14.05.26.1.36.04.1.1.2.17.29.09.11.19.2.3.27s.23.11.35.13c.13.02.25,0,.38-.03.13-.04.26-.1.38-.2.15-.12.26-.24.34-.37.08-.13.12-.26.13-.4.01-.14,0-.28-.06-.42-.05-.14-.13-.28-.24-.42l.57-.45c.15.19.25.39.32.61.07.22.08.44.06.66-.02.22-.1.44-.22.65-.12.21-.3.41-.53.59-.21.17-.42.28-.64.35-.22.07-.43.1-.63.08-.2-.02-.4-.08-.58-.18-.18-.1-.34-.24-.48-.42-.1-.13-.19-.28-.24-.45-.06-.17-.1-.34-.12-.53-.02-.19-.03-.38-.03-.59,0-.2.01-.41.03-.62l.18-2.25-2.25,1.76-.37-.46,2.93-2.3Z"/>
        <path d="M110.72,134.9l.28.52-3.72,2.03-.28-.52,3.72-2.03Z"/>
        <path d="M106.77,137.04l.25.54-3.84,1.79-.25-.53,3.84-1.79Z"/>
        <path d="M102.71,138.92l.21.55-3.95,1.55-.21-.55,3.95-1.54Z"/>
        <path d="M98.56,140.54l.18.56-4.04,1.29-.18-.56,4.04-1.29Z"/>
        <path d="M94.28,141.9l.14.57-4.11,1.04-.14-.57,4.11-1.04Z"/>
        <path d="M89.95,142.99l.11.58-4.17.78-.11-.58,4.17-.78Z"/>
        <path d="M85.54,143.8l.07.58-4.21.51-.07-.59,4.21-.51Z"/>
        <path d="M81.1,144.33l.03.59-4.23.25-.04-.59,4.23-.25Z"/>
        <path d="M65.53,142.67c.11-.27.26-.49.43-.66.18-.17.38-.3.62-.37.24-.07.5-.1.79-.07.29.03.54.11.76.23s.39.29.53.5c.14.21.23.45.29.74.05.29.06.61.02.97l-.14,1.32c-.04.36-.11.67-.23.94-.11.27-.26.49-.44.67-.18.17-.38.3-.62.38-.24.08-.5.1-.79.07-.29-.03-.54-.11-.76-.23-.22-.12-.39-.29-.53-.5-.13-.21-.23-.46-.28-.74-.05-.29-.06-.61-.02-.97l.14-1.32c.04-.36.11-.67.23-.94ZM65.85,145.53c0,.19.02.36.06.51s.1.28.18.38c.08.11.18.19.3.26.12.06.27.1.44.12.17.02.32,0,.46-.03s.26-.1.36-.2c.12-.12.22-.27.29-.47.08-.2.13-.42.15-.69l.1-.95c0-.06.01-.13.02-.19,0-.06.01-.13.02-.2l-2.38,1.46ZM65.96,144.34s-.01.11-.02.22c-.01.11-.02.2-.03.27l2.38-1.45c0-.19-.03-.36-.07-.51-.04-.15-.11-.28-.2-.38-.08-.1-.18-.17-.3-.23-.12-.06-.26-.1-.41-.11-.16-.02-.31,0-.44.03-.13.04-.25.09-.34.18-.13.11-.24.27-.32.47-.08.2-.13.44-.16.71l-.08.8Z"/>
        <path d="M61.21,141.96c.13-.26.29-.47.47-.63.19-.16.4-.28.64-.33s.5-.07.79-.02c.29.05.53.14.74.28.21.13.38.31.5.53.12.21.2.47.24.76.04.29.02.61-.04.97l-.22,1.31c-.06.36-.16.67-.28.93s-.29.47-.48.64c-.19.16-.4.28-.64.34-.24.06-.5.07-.79.02-.29-.05-.54-.14-.74-.28s-.37-.31-.5-.53c-.12-.22-.2-.47-.24-.76s-.02-.61.04-.97l.22-1.31c.06-.36.16-.67.28-.93ZM61.35,144.83c-.01.19,0,.36.03.51s.08.28.15.39c.07.11.17.2.28.27s.26.12.43.15c.17.03.32.03.46,0,.14-.03.26-.09.37-.17.13-.11.24-.26.32-.45.09-.19.15-.42.2-.68l.16-.94c.01-.06.02-.13.03-.19s.02-.13.03-.2l-2.47,1.3ZM61.53,143.66s-.02.11-.04.22c-.02.11-.03.2-.05.27l2.46-1.3c0-.19,0-.36-.04-.52-.04-.15-.09-.28-.17-.39-.07-.1-.17-.19-.28-.25-.12-.07-.25-.11-.4-.14-.16-.03-.31-.03-.44,0-.13.03-.25.08-.36.16-.14.11-.25.25-.34.45s-.16.43-.21.7l-.13.79Z"/>
        <path d="M56.5,141.6l.13-.57.77.18.3-1.29.7.17-.3,1.29,2.52.59-.1.42-3.38,3.25-.75-.18.87-3.68-.77-.18ZM57.97,141.95l-.65,2.74.17-.19,2.23-2.14-1.75-.41Z"/>
        <path d="M47.36,140.07c-.07.07-.15.13-.24.16s-.19.05-.29.05c-.1,0-.21-.03-.33-.07-.11-.05-.21-.11-.28-.18-.08-.07-.13-.16-.17-.25-.04-.09-.05-.18-.05-.29,0-.1.03-.21.07-.31l.09-.21c.04-.1.1-.19.17-.26.07-.07.15-.13.24-.16.09-.04.19-.05.29-.05.11,0,.21.03.33.08.11.05.21.11.28.18.08.07.13.15.17.25.04.09.06.19.05.29,0,.1-.02.2-.07.31l-.09.21c-.04.1-.1.19-.17.26Z"/>
        <path d="M37.9,131.36l-2.56,4.02,1.56.32-.35.56-2.26-.46-.05-.03,3.05-4.8.61.39Z"/>
        <path d="M31.87,134.17l-2.36-1.72.41-.57,1.87,1.36,1.02-1.13c-.13-.01-.27-.05-.43-.1-.16-.05-.32-.14-.48-.26-.21-.16-.38-.33-.49-.53-.11-.2-.18-.4-.2-.62-.02-.22,0-.45.08-.68.07-.24.2-.47.37-.7.16-.22.34-.4.53-.54s.4-.24.62-.29c.22-.05.45-.05.69,0s.48.17.72.35c.19.14.34.29.47.47s.22.36.27.56c.05.2.06.41.03.63-.03.22-.12.45-.25.67l-.56-.4c.15-.29.2-.56.14-.8-.06-.25-.21-.46-.46-.64-.14-.1-.28-.17-.42-.2-.14-.03-.29-.02-.43.02-.14.04-.27.11-.4.21-.13.1-.25.23-.37.39-.1.14-.18.29-.23.45-.05.15-.07.31-.06.46.01.15.06.29.13.42.08.14.19.26.33.36.1.07.19.12.27.16.08.04.16.06.23.08.08.02.15.02.23.02s.16,0,.24-.01l.38.46-1.9,2.12Z"/>
        <path d="M21.86,124.75c-.12.07-.24.14-.38.19-.13.05-.27.09-.42.11-.14.02-.29.03-.43.02l-.08-.48c.22-.04.42-.11.6-.2s.35-.21.51-.37l.42-.41.5.5-.41.4c-.09.08-.19.17-.31.24ZM22.75,125.66c-.12.07-.24.13-.38.18-.13.05-.27.09-.42.11s-.29.03-.43.02l-.08-.48c.22-.04.42-.11.6-.2.18-.09.35-.21.51-.37l.42-.41.49.5-.41.4c-.09.09-.19.17-.31.24Z"/>
        <path d="M16.27,111.82c.28-.09.54-.13.78-.11.25.02.48.09.69.22.21.13.4.31.57.55.17.24.27.48.33.72.05.24.04.49-.03.73-.07.24-.19.47-.37.7-.18.23-.42.45-.72.65l-1.09.76c-.3.21-.58.36-.86.45s-.54.13-.79.11c-.25-.02-.48-.09-.69-.22-.21-.13-.4-.31-.57-.55-.17-.24-.27-.48-.32-.72-.05-.24-.04-.49.03-.73.07-.24.19-.47.38-.7s.42-.45.72-.65l1.09-.76c.3-.21.58-.36.86-.45ZM14.32,113.93c-.14.12-.26.25-.34.38-.09.13-.15.25-.17.38-.03.13-.03.26,0,.39.03.13.1.27.2.41.1.14.21.25.33.33s.25.12.38.14c.17.02.35-.01.55-.08.2-.07.4-.18.62-.34l.78-.54c.05-.04.11-.08.16-.11.05-.04.11-.08.16-.11l-2.66-.84ZM15.29,113.24s-.09.06-.18.13-.17.12-.23.16l2.65.84c.14-.13.26-.26.34-.39s.14-.26.16-.4c.02-.12.02-.25-.02-.38-.03-.13-.1-.26-.19-.38-.09-.13-.2-.24-.31-.32-.11-.08-.23-.12-.36-.14-.17-.03-.36,0-.56.07-.2.07-.42.19-.64.35l-.66.46Z"/>
        <path d="M15.33,109.66c-.14-.02-.26-.12-.36-.28-.1-.16-.12-.31-.08-.45.04-.14.13-.25.26-.33.13-.08.27-.1.41-.07s.26.12.36.28c.1.16.13.31.08.44-.04.14-.13.24-.25.32-.13.08-.27.11-.41.08Z"/>
        <path d="M9.75,105.42c.18-.02.35,0,.52.06.08.02.16.06.24.1s.16.09.23.14c-.01-.16,0-.31.02-.46.03-.15.07-.29.14-.42.07-.13.15-.25.26-.35.1-.11.22-.2.37-.27.23-.12.45-.18.67-.19.22,0,.43.03.63.11.2.08.38.2.54.36.17.16.31.35.42.57.12.23.2.45.24.68.04.23.04.44-.01.65-.04.21-.13.4-.27.58-.13.18-.32.33-.55.45-.14.07-.28.12-.43.15-.15.03-.29.03-.44.01-.14-.02-.28-.06-.42-.12-.14-.06-.27-.14-.39-.24,0,.14-.01.27-.04.41-.03.13-.08.25-.14.37-.06.11-.14.21-.24.31s-.2.17-.33.24c-.22.12-.43.18-.64.2-.21.02-.41,0-.6-.08-.19-.07-.36-.17-.51-.32-.16-.15-.29-.33-.41-.54-.11-.21-.18-.42-.22-.64-.03-.21-.03-.42.02-.62.05-.2.14-.38.27-.54.13-.17.31-.31.53-.42.17-.09.34-.14.52-.15ZM9.26,106.45c-.08.1-.14.21-.18.32-.04.12-.05.24-.04.36.01.13.05.25.12.38.07.12.14.23.24.31s.2.14.31.17c.12.03.24.04.37.03.13-.02.26-.06.39-.13.13-.07.24-.15.32-.25s.14-.2.18-.32c.04-.11.05-.23.04-.36s-.05-.25-.12-.37c-.06-.12-.14-.22-.24-.31-.09-.08-.2-.14-.32-.18-.11-.04-.23-.04-.36-.03-.13.01-.26.06-.39.12-.13.07-.23.15-.32.25ZM11.5,105.13c-.09.11-.16.23-.2.36-.04.13-.05.26-.03.41.02.14.06.28.14.42.08.15.17.26.28.36.11.09.22.16.35.2.13.04.26.05.41.03.14-.02.28-.06.42-.14.14-.08.26-.17.35-.27.09-.1.15-.22.19-.34.03-.12.04-.26.02-.4-.02-.14-.07-.28-.15-.43-.07-.14-.16-.26-.27-.36-.1-.1-.22-.17-.34-.21-.12-.04-.25-.06-.39-.04s-.28.06-.43.13c-.14.07-.26.17-.35.27Z"/>
        <path d="M8.58,94.87c-.16-.21-.34-.35-.53-.44-.24-.11-.48-.16-.71-.15-.23.01-.46.05-.7.11h0c.09.04.19.08.28.14.09.05.18.12.26.2s.16.17.22.28c.07.11.12.23.17.37.09.27.11.52.07.74s-.13.43-.26.62c-.13.18-.29.34-.49.47s-.4.23-.62.3c-.25.08-.51.13-.76.13-.25,0-.48-.04-.7-.12-.21-.08-.4-.21-.57-.39-.17-.18-.3-.4-.39-.68s-.12-.54-.08-.77c.04-.24.12-.45.24-.65.14-.23.35-.43.62-.61.27-.18.55-.32.84-.41l.25-.08c.42-.14.85-.23,1.3-.28s.89.02,1.31.21c.26.11.5.3.72.57.22.27.41.63.55,1.07l.02.07-.61.2-.02-.07c-.11-.35-.25-.62-.41-.83ZM6.78,95.14c-.07-.1-.16-.18-.27-.25-.1-.07-.21-.12-.33-.17s-.24-.07-.37-.07l-.22.07c-.24.08-.45.18-.62.29s-.3.24-.41.38c-.1.14-.16.28-.19.43-.03.15-.02.29.03.43.05.16.13.29.24.4s.23.18.37.23c.14.05.3.07.47.07.17,0,.34-.04.52-.1.16-.05.31-.12.45-.21.14-.09.25-.19.35-.31.09-.12.16-.25.19-.4.03-.15.02-.3-.03-.47-.04-.12-.09-.22-.17-.32Z"/>
        <path d="M8.11,90.55l-4.61,1.19.92,1.3-.64.17-1.34-1.88v-.06s5.49-1.42,5.49-1.42l.18.7Z"/>
        <path d="M1.15,79.38c-.14-.02-.28-.05-.41-.1-.13-.05-.27-.11-.39-.18-.13-.07-.24-.16-.34-.26l.25-.42c.19.11.39.18.59.23.2.04.41.06.63.04l.58-.05.06.71-.57.05c-.12,0-.25,0-.39-.01ZM1.26,80.65c-.14-.02-.28-.05-.41-.1-.13-.05-.27-.1-.39-.18-.13-.07-.24-.16-.34-.26l.25-.42c.19.11.39.18.59.23.2.04.41.06.63.04l.58-.05.06.7-.57.05c-.12.01-.25,0-.39-.01Z"/>
        <path d="M5.97,69.64l-.52-.04-1.92-2.02c-.17-.18-.32-.33-.46-.46-.13-.12-.26-.22-.38-.3-.11-.08-.22-.13-.33-.17s-.22-.06-.33-.07c-.14-.01-.27,0-.4.04-.13.04-.24.09-.34.17-.1.08-.18.18-.24.3-.06.12-.1.26-.11.41-.01.19,0,.36.04.5.04.14.11.26.2.36.09.1.21.18.35.24.14.06.3.09.47.11l-.06.72c-.24-.02-.46-.08-.67-.18s-.38-.24-.53-.41c-.15-.17-.26-.37-.33-.6-.08-.24-.1-.5-.08-.79.02-.27.08-.51.18-.71.1-.21.22-.38.37-.52.15-.14.33-.24.53-.3.2-.06.41-.09.64-.07.17.01.33.05.49.12s.32.16.47.27c.15.11.3.24.45.38.15.14.29.29.44.44l1.53,1.65.23-2.85.59.05-.29,3.71Z"/>
        <path d="M5.01,57.77l-.57-.14,1.03-4.11.57.14-1.03,4.11Z"/>
        <path d="M6.11,53.42l-.56-.18,1.29-4.04.56.18-1.29,4.04Z"/>
        <path d="M7.47,49.18l-.55-.21,1.54-3.95.55.21-1.54,3.95Z"/>
        <path d="M9.12,45.01l-.54-.25,1.79-3.84.53.25-1.79,3.84Z"/>
        <path d="M11.02,40.95l-.52-.28,2.03-3.72.52.28-2.03,3.72Z"/>
        <path d="M13.17,37.02l-.5-.31,2.26-3.59.5.31-2.26,3.59Z"/>
        <path d="M15.55,33.25l-.48-.34,2.48-3.44.48.34-2.48,3.44Z"/>
        <path d="M18.17,29.63l-.46-.37,2.69-3.28.46.37-2.69,3.28Z"/>
        <path d="M29.96,19.31c.12.27.19.52.19.77,0,.25-.04.48-.14.71s-.27.43-.49.62c-.22.19-.45.32-.68.4-.24.08-.48.09-.73.05-.25-.04-.49-.14-.74-.29-.25-.16-.49-.37-.73-.64l-.88-1c-.24-.27-.42-.54-.54-.81s-.19-.52-.19-.77c0-.25.04-.48.14-.71s.27-.43.49-.62c.22-.19.45-.33.69-.4s.48-.09.73-.05c.25.04.49.14.74.3.25.16.49.37.73.64l.88,1c.24.27.42.54.54.81ZM27.65,17.6c-.14-.13-.28-.23-.41-.3-.14-.07-.27-.12-.4-.13-.13-.02-.26,0-.39.05s-.26.13-.39.24c-.13.11-.23.23-.29.36-.06.13-.1.26-.1.39,0,.17.05.35.14.53.09.19.23.38.4.58l.63.72.13.15s.09.1.13.15l.55-2.74ZM28.45,18.49s-.07-.09-.15-.17-.13-.15-.18-.21l-.55,2.73c.14.13.28.23.42.3.14.07.28.11.41.11.12,0,.25-.01.37-.06.12-.05.25-.12.36-.23.12-.11.22-.22.28-.34s.1-.25.1-.38c0-.17-.04-.36-.13-.55-.09-.19-.23-.39-.42-.6l-.53-.61Z"/>
        <path d="M33.4,16.63c.1.27.15.53.15.78,0,.25-.07.48-.19.7-.12.22-.29.41-.53.59-.23.18-.46.3-.71.36s-.48.06-.73,0c-.24-.05-.48-.17-.72-.34-.24-.17-.47-.4-.69-.69l-.81-1.06c-.22-.29-.38-.57-.49-.84-.11-.27-.15-.53-.15-.78,0-.25.07-.48.19-.7.12-.22.29-.42.52-.59.23-.18.47-.3.71-.36.24-.06.48-.06.73,0,.24.06.48.17.72.34.24.17.47.4.69.69l.81,1.06c.22.29.38.57.49.84ZM31.2,14.78c-.13-.14-.26-.25-.39-.33-.13-.08-.26-.13-.39-.15-.13-.02-.26-.02-.39.02-.13.04-.27.11-.4.21-.14.11-.24.22-.31.34-.07.12-.11.25-.12.39,0,.17.03.35.11.54s.2.39.36.6l.58.75c.04.05.08.1.12.16.04.05.08.1.12.16l.72-2.7ZM31.94,15.71s-.07-.09-.14-.18c-.07-.09-.12-.16-.17-.22l-.72,2.69c.13.14.27.24.41.32s.27.12.4.14c.12.02.25,0,.38-.04.13-.04.25-.11.38-.2.13-.1.23-.21.3-.33.07-.12.11-.24.13-.37.02-.17-.02-.36-.1-.56-.08-.2-.21-.41-.38-.63l-.49-.64Z"/>
        <path d="M34.65,17.21l-.29-.43.39-2.76c.04-.25.06-.46.07-.64.01-.18.01-.34,0-.48-.01-.14-.04-.26-.07-.36-.04-.11-.09-.21-.15-.3-.08-.12-.17-.21-.28-.29-.11-.08-.22-.13-.34-.16-.12-.03-.25-.03-.38,0-.13.02-.26.08-.39.17-.16.11-.28.22-.36.34s-.14.25-.16.38c-.02.14,0,.28.03.42s.11.29.21.44l-.6.41c-.13-.2-.23-.41-.28-.63-.05-.22-.05-.44,0-.66.04-.22.13-.43.27-.64.14-.21.33-.39.57-.55.22-.15.44-.25.67-.31.22-.05.43-.06.64-.03.2.03.39.11.56.22s.32.27.45.45c.09.14.17.29.21.46.04.17.07.35.08.54,0,.19,0,.38-.02.59-.02.2-.04.41-.07.62l-.34,2.23,2.37-1.6.33.49-3.09,2.08Z"/>
        <path d="M43.25,6.38c-.03-.14-.04-.28-.04-.42,0-.14.01-.29.04-.43s.07-.28.13-.41l.48.09c-.04.22-.04.43-.02.63.02.2.08.4.17.61l.24.53-.64.29-.24-.52c-.05-.11-.09-.23-.12-.37ZM44.4,5.86c-.03-.14-.04-.28-.04-.42,0-.14,0-.29.04-.43s.07-.28.13-.41l.48.09c-.04.22-.04.43-.02.63.02.2.08.4.18.61l.24.53-.64.29-.24-.52c-.05-.11-.09-.24-.12-.37Z"/>
        <path d="M56.87,5.91c.21-.15.37-.32.47-.51.12-.24.19-.47.19-.7s-.02-.47-.07-.7h0c-.04.08-.09.17-.15.26-.06.09-.13.17-.22.25-.08.08-.18.15-.29.21s-.24.11-.38.15c-.27.07-.52.08-.75.03-.23-.05-.43-.15-.6-.29s-.32-.31-.44-.51c-.12-.2-.21-.42-.26-.64-.07-.26-.1-.51-.09-.76.01-.25.07-.48.16-.69.1-.21.24-.39.42-.55s.42-.27.7-.35c.28-.07.54-.09.78-.04s.45.14.63.28c.22.16.41.38.57.65.16.28.28.57.36.87l.07.25c.11.43.18.87.2,1.32.02.45-.07.88-.28,1.3-.13.25-.33.48-.61.69-.28.21-.65.37-1.1.49l-.07.02-.16-.62.07-.02c.35-.09.64-.21.85-.36ZM56.71,4.11c.1-.07.19-.15.27-.25.07-.1.14-.2.18-.32.05-.12.08-.24.09-.37l-.06-.23c-.06-.24-.15-.45-.26-.63-.11-.18-.23-.32-.36-.43-.13-.1-.27-.18-.42-.21-.15-.04-.29-.04-.43,0-.16.04-.3.11-.41.21s-.19.22-.25.35c-.06.14-.09.29-.09.46,0,.17.02.34.07.53.04.16.1.31.19.46.08.14.18.27.29.36.11.1.24.17.38.21.14.04.3.04.47,0,.12-.03.23-.08.33-.15Z"/>
        <path d="M61.11,4.93c.22-.13.39-.29.5-.48.14-.23.22-.46.23-.69.02-.23,0-.47-.02-.7h0c-.05.08-.1.17-.17.25-.07.08-.14.16-.23.23-.09.07-.19.13-.31.19-.12.05-.24.09-.39.12-.28.05-.52.05-.75-.02-.22-.07-.42-.18-.58-.33-.17-.15-.3-.33-.41-.54s-.18-.43-.22-.65c-.05-.26-.07-.52-.04-.77.03-.25.1-.47.21-.68.11-.2.26-.38.46-.52.2-.15.44-.25.72-.3s.54-.05.78.01c.23.06.44.17.61.31.21.17.39.4.53.69.14.29.25.58.31.89l.05.26c.09.43.13.88.12,1.33,0,.45-.13.88-.36,1.28-.14.24-.36.46-.66.65-.29.19-.67.33-1.13.42h-.07s-.13-.62-.13-.62h.07c.36-.08.65-.19.87-.32ZM61.06,3.12c.11-.06.2-.14.28-.23.08-.09.15-.19.2-.3s.09-.23.11-.36l-.04-.23c-.05-.25-.12-.46-.22-.65s-.21-.33-.33-.45c-.13-.11-.26-.19-.4-.24-.14-.05-.29-.05-.43-.03-.17.03-.31.1-.42.19-.11.09-.2.2-.27.34-.07.13-.11.29-.12.46-.01.17,0,.34.03.53.03.16.08.32.16.47.07.15.16.28.27.38.11.11.23.18.37.24.14.05.3.06.47.02.12-.02.23-.07.34-.13Z"/>
      </g>
      <g>
        <path d="M39.64,30.34c-.02.13-.05.25-.09.37-.07.2-.16.39-.28.57s-.27.34-.45.49c-.18.15-.36.27-.56.34-.19.08-.39.12-.59.13-.2.01-.39,0-.59-.05-.2-.05-.39-.12-.57-.21-.19-.09-.36-.2-.53-.33-.17-.13-.32-.28-.47-.44l-.43-.5c-.14-.16-.26-.33-.37-.51-.11-.18-.2-.37-.27-.56-.07-.19-.12-.39-.15-.58-.03-.2-.02-.39.01-.58.04-.19.1-.37.2-.55.1-.18.24-.35.42-.51.2-.17.41-.3.63-.39.22-.08.45-.13.67-.12.23,0,.45.06.67.15.22.09.42.24.61.42l-.54.47c-.13-.1-.26-.19-.4-.26s-.27-.1-.41-.12c-.14,0-.28,0-.42.06-.14.05-.28.13-.41.25-.13.11-.22.24-.29.37-.06.13-.1.27-.11.41s0,.28.04.42c.04.14.09.28.15.42.06.14.14.27.22.39.09.13.17.24.27.35l.44.5c.1.11.2.21.32.31.12.1.24.19.37.27.13.08.27.14.41.19.14.05.28.08.43.08.14,0,.28-.01.42-.06s.28-.12.41-.23c.08-.06.15-.13.23-.21.08-.08.14-.16.2-.25.06-.09.1-.18.13-.28.03-.1.04-.2.03-.3l-.83-.97-.87.76-.4-.46,1.39-1.21,1.38,1.56c0,.14,0,.27-.03.4Z"/>
        <path d="M39.87,27.81l1.38,1.86-.58.43-3.39-4.57,1.34-.99c.22-.15.44-.27.67-.36.23-.08.46-.12.68-.11.22,0,.44.07.65.18s.4.28.57.51c.11.15.19.3.24.46s.07.31.07.47-.02.31-.07.47c-.05.16-.11.31-.2.45l2.42,1.23.03.04-.61.45-2.28-1.2-.91.68ZM40.29,26.76c.13-.1.24-.21.32-.33s.15-.26.18-.39c.03-.14.03-.28,0-.42s-.09-.28-.2-.42c-.11-.15-.23-.26-.36-.33s-.27-.12-.41-.13c-.14,0-.28.01-.43.06-.15.05-.29.13-.43.23l-.76.57,1.3,1.75.78-.58Z"/>
        <path d="M43.99,20.95l.33.53-1.15.72,2.36,3.75,1.15-.72.33.53-2.91,1.83-.33-.53,1.13-.71-2.36-3.75-1.13.71-.33-.53,2.91-1.83Z"/>
        <path d="M45.07,20.32l1.17-.61c.2-.1.39-.18.59-.23.19-.05.38-.08.57-.09.25-.01.5.02.74.09s.46.18.66.33c.17.13.34.28.49.46s.29.38.41.61l.19.37c.12.22.21.44.27.66.06.22.1.44.1.64,0,.22-.02.43-.07.63-.05.21-.13.4-.24.58-.11.19-.26.37-.44.53-.18.17-.39.31-.63.44l-1.17.61-2.64-5.04ZM48.09,24.5l.52-.27c.18-.1.34-.21.47-.33.13-.12.23-.26.31-.4.08-.15.14-.31.16-.48s.03-.34,0-.52c-.02-.15-.05-.3-.1-.45-.05-.15-.12-.31-.19-.46l-.2-.38c-.08-.16-.18-.3-.28-.43-.1-.13-.21-.25-.32-.35-.15-.13-.31-.23-.48-.31-.17-.08-.36-.11-.55-.11-.14,0-.29.01-.44.05-.15.04-.31.1-.47.18l-.52.27,2.09,3.99Z"/>
        <path d="M56.29,21.46l-.68.23-1.82-5.39,1.75-.59c.24-.08.49-.12.73-.12.24,0,.46.04.67.12.21.08.39.21.56.37.16.17.29.38.38.64.09.26.12.5.09.73-.03.23-.1.44-.22.63-.12.19-.27.36-.46.5s-.41.26-.65.34l-1.06.36.73,2.16ZM56.43,18.38c.16-.06.29-.13.41-.22.12-.09.21-.2.28-.32.07-.12.11-.26.12-.4.01-.15,0-.3-.06-.46-.05-.16-.13-.3-.23-.41s-.21-.2-.34-.26c-.13-.06-.27-.09-.42-.09-.15,0-.31.02-.46.07l-1.06.36.71,2.1,1.06-.36Z"/>
        <path d="M62.71,17.64c.02.21.02.42,0,.62s-.06.4-.12.59c-.06.19-.15.36-.26.52-.11.16-.25.29-.41.41-.17.12-.36.2-.59.26-.23.06-.44.07-.64.05-.2-.02-.39-.08-.56-.16-.17-.09-.33-.2-.47-.33s-.27-.29-.39-.46c-.12-.17-.21-.35-.3-.54-.08-.19-.15-.39-.2-.58l-.16-.63c-.05-.2-.08-.4-.1-.61-.02-.21-.02-.42,0-.62.02-.2.06-.4.12-.59s.15-.36.26-.52c.11-.16.25-.29.42-.41.17-.12.36-.2.59-.26.23-.06.44-.07.64-.05.2.02.39.08.56.16.17.08.33.2.47.33.14.14.27.29.39.46.11.17.21.35.29.55.08.19.15.39.2.59l.16.63c.05.2.08.4.1.61ZM61.63,16.16c-.05-.14-.11-.27-.18-.41-.07-.13-.16-.25-.25-.36s-.2-.21-.31-.28c-.12-.07-.24-.12-.38-.15-.14-.03-.29-.02-.45.02-.16.04-.3.11-.41.2-.11.09-.2.19-.26.31-.07.12-.11.25-.14.4s-.04.29-.04.44c0,.15,0,.3.03.45.02.15.04.28.07.41l.16.64c.03.13.08.26.13.4s.12.27.19.4c.07.13.16.25.25.37.09.11.2.21.31.28.12.08.24.13.38.15.14.03.29.02.45-.02s.3-.11.41-.2c.11-.09.2-.19.26-.32.06-.12.11-.25.14-.39.03-.14.04-.29.04-.44,0-.15-.01-.29-.03-.44s-.05-.29-.08-.42l-.16-.64c-.04-.13-.08-.27-.13-.4Z"/>
        <path d="M66.23,13.18l.11.62-1.34.23.74,4.37,1.34-.23.1.62-3.39.58-.1-.62,1.31-.22-.74-4.37-1.31.22-.11-.62,3.39-.58Z"/>
        <path d="M70.84,18.42l-2.58-4.03.37,4.23-.73.07-.51-5.67.73-.07,2.58,4.03-.37-4.23.73-.07.51,5.66-.73.07Z"/>
        <path d="M74.31,13.22l.08,5.07h-.7s-.08-5.06-.08-5.06l-1.76.03v-.62s4.21-.07,4.21-.07v.62s-1.75.03-1.75.03Z"/>
        <path d="M80.88,16.04l.08-.58,4.2.6-.08.58-4.2-.6Z"/>
        <path d="M85.32,16.69l.13-.58,4.13.93-.13.58-4.14-.93Z"/>
        <path d="M89.7,17.68l.17-.56,4.05,1.25-.17.56-4.05-1.25Z"/>
        <path d="M93.99,19.01l.22-.55,3.94,1.56-.22.55-3.94-1.56Z"/>
        <path d="M102.67,24.21l-1.14,1.03-.62-.37,4.48-3.96.52.31-1.35,5.81-.62-.37.36-1.5-1.63-.97ZM104.46,24.54l.61-2.51-1.91,1.74,1.3.77Z"/>
        <path d="M108.3,28.46c-.21.12-.43.2-.65.23-.23.04-.46.03-.69-.03-.23-.06-.46-.16-.68-.32-.19-.13-.35-.28-.46-.45-.12-.16-.21-.34-.26-.52-.06-.18-.08-.37-.08-.56,0-.19.03-.38.08-.58.05-.2.12-.39.21-.58s.19-.37.31-.54l.46-.65c.12-.17.26-.33.41-.48.15-.15.3-.28.47-.39.17-.11.34-.2.52-.27.18-.07.37-.11.56-.12.19-.01.38.01.57.07.19.05.39.15.58.29.23.16.42.34.55.54.13.2.22.41.26.63.04.22.03.46-.01.7s-.14.48-.27.72l-.59-.42c.08-.15.14-.31.18-.46.04-.15.05-.3.04-.45-.01-.15-.06-.29-.14-.42-.08-.13-.19-.25-.35-.36-.14-.1-.28-.16-.42-.19-.14-.03-.28-.03-.41,0-.13.02-.26.07-.39.14-.13.07-.25.15-.36.24s-.22.2-.32.31c-.1.11-.19.23-.27.34l-.46.66c-.08.12-.16.24-.23.37s-.13.27-.18.41c-.05.14-.09.28-.11.42-.02.14-.02.28,0,.41.02.14.07.26.14.38.07.12.18.23.33.33.16.11.31.18.46.21s.29.03.44,0c.14-.03.28-.09.41-.18.13-.09.26-.19.38-.32l.59.42c-.18.2-.37.35-.58.48Z"/>
        <path d="M113.21,27.18l-3.23,3.91-.54-.45,3.23-3.91-1.36-1.12.39-.48,3.25,2.69-.39.48-1.35-1.12Z"/>
        <path d="M118.1,30.83l-.44.45-.98-.95-3.08,3.19.98.95-.43.45-2.47-2.39.43-.45.96.93,3.08-3.19-.96-.93.44-.45,2.47,2.39Z"/>
        <path d="M118.73,31.48l.51.58-2.35,3.75-.15.25.27-.12,4.01-1.87.51.58-5.45,2.43-.42-.47,3.07-5.12Z"/>
        <path d="M120.11,37.8l-1.61,1.21,1.67,2.21-.49.37-2.1-2.79,4.54-3.43,2.08,2.76-.49.37-1.65-2.18-1.46,1.1,1.43,1.9-.49.37-1.43-1.9Z"/>
        <path d="M125.85,45.1c.1-.01.2,0,.29.02.09.03.18.08.26.14.08.07.15.16.21.26.06.11.09.21.11.32.01.11,0,.21-.02.3-.03.09-.08.18-.14.25-.07.08-.15.14-.25.19l-.2.11c-.1.05-.2.08-.3.1-.1.01-.2,0-.29-.02-.1-.03-.18-.08-.26-.15-.08-.07-.15-.16-.21-.26-.06-.11-.09-.21-.11-.32-.01-.1,0-.2.03-.3.03-.09.07-.18.14-.26.07-.08.15-.14.25-.2l.2-.11c.1-.05.2-.08.3-.1Z"/>
        <path d="M128.79,55.69c.09-.11.15-.24.19-.39.04-.14.05-.3.06-.46,0-.16,0-.31,0-.46,0-.21,0-.43.02-.66.02-.23.06-.44.13-.64.07-.21.17-.39.31-.55s.32-.28.55-.36.46-.1.67-.06c.22.04.42.12.6.24s.34.28.48.46c.14.19.24.39.32.6.08.23.12.47.12.72s-.04.47-.13.69c-.08.22-.21.41-.37.58-.17.17-.37.3-.61.39l-.24-.7c.15-.07.28-.16.38-.26s.19-.21.25-.34.09-.26.1-.41c0-.15-.02-.3-.08-.46-.04-.13-.11-.25-.19-.36s-.17-.2-.28-.27c-.11-.07-.23-.12-.35-.14-.13-.02-.26,0-.41.04-.15.06-.27.14-.35.25-.08.11-.14.24-.17.39-.03.14-.05.29-.05.44s0,.3,0,.43c0,.22,0,.45-.02.67-.02.23-.07.45-.15.66-.07.21-.18.39-.33.55-.15.16-.34.29-.58.37-.24.08-.47.1-.69.06-.22-.04-.41-.13-.59-.26-.18-.13-.34-.29-.47-.48-.13-.19-.24-.4-.31-.61-.09-.26-.13-.52-.13-.8,0-.28.05-.54.15-.77.08-.21.2-.4.36-.56.16-.16.35-.28.58-.37l.24.7c-.16.08-.29.18-.4.29s-.18.24-.23.38c-.05.14-.08.29-.08.45,0,.16.03.32.09.49.05.13.11.26.19.38.08.12.17.21.28.29.1.08.22.13.35.16.13.03.27.02.42-.04.16-.06.29-.14.38-.26Z"/>
        <path d="M133.82,59.57l-.61.16-.34-1.32-4.29,1.12.34,1.32-.61.16-.87-3.33.6-.16.34,1.29,4.29-1.12-.34-1.29.61-.16.87,3.33Z"/>
        <path d="M129.55,65.1c-.1-.08-.19-.17-.27-.26-.14-.16-.25-.34-.34-.54-.09-.2-.15-.41-.19-.64-.04-.23-.04-.45,0-.66.03-.21.1-.4.19-.57.09-.17.21-.33.35-.48.14-.14.3-.27.48-.38.17-.11.36-.21.56-.28s.4-.13.61-.17l.65-.12c.21-.03.42-.05.63-.05.21,0,.42.02.62.05.2.04.39.1.58.18.18.08.35.18.49.31.14.13.27.28.37.46.1.18.17.38.22.62.05.26.05.51,0,.74-.04.23-.12.45-.24.64-.12.19-.28.36-.47.49-.19.14-.42.24-.68.31l-.12-.7c.16-.06.3-.13.42-.21.13-.08.23-.18.31-.29.08-.12.14-.24.17-.39.03-.14.03-.3,0-.48-.03-.17-.09-.31-.17-.43s-.18-.22-.29-.3c-.12-.08-.24-.14-.38-.18s-.29-.07-.44-.08c-.15-.02-.3-.02-.45-.01-.15,0-.3.03-.44.05l-.66.12c-.14.03-.28.07-.43.11-.15.05-.29.11-.42.18-.14.07-.26.16-.38.25-.12.09-.21.2-.29.32-.08.12-.14.25-.17.39s-.04.3,0,.47c.01.1.04.2.07.3.03.1.07.2.12.3s.11.18.17.26c.07.08.15.14.25.18l1.26-.22-.2-1.14.6-.11.32,1.82-2.05.38c-.12-.07-.23-.14-.33-.23Z"/>
        <path d="M129.49,68.86l4.01-2.61-4.23.4-.07-.73,5.66-.56.07.73-4.01,2.61,4.22-.4.07.73-5.66.56-.07-.73Z"/>
        <path d="M131.09,71.12l-1.48-.43v-.72s5.71,1.72,5.71,1.72v.61s-5.64,1.92-5.64,1.92v-.72s1.45-.48,1.45-.48l-.04-1.9ZM131.76,72.81l2.45-.8-2.48-.71.03,1.51Z"/>
        <path d="M130.07,78.24l-.61-.04.2-3.5,5.68.32-.04.72-5.07-.29-.16,2.78Z"/>
        <path d="M130.03,80.61c.1.11.13.26.11.44-.03.19-.1.32-.22.4-.12.08-.26.11-.41.09-.15-.02-.27-.09-.36-.2-.09-.11-.12-.26-.1-.44.03-.19.1-.32.21-.4s.25-.11.4-.09c.15.02.28.08.37.19ZM133.42,81.07c.1.11.13.26.11.44-.03.19-.1.32-.22.4-.12.08-.26.11-.41.09-.15-.02-.27-.09-.36-.2-.09-.11-.12-.26-.1-.44.02-.19.1-.32.21-.4s.25-.11.4-.09c.15.02.28.08.37.19Z"/>
        <path d="M128.81,90.64c.14-.04.26-.11.38-.21.11-.1.22-.21.31-.34.09-.13.18-.25.27-.37.12-.17.25-.35.4-.52s.31-.32.48-.44c.18-.13.37-.22.57-.27.2-.05.42-.04.66.03s.43.19.58.34c.15.16.27.34.35.55s.12.42.12.66c0,.23-.03.46-.09.67-.07.24-.18.45-.32.65-.14.2-.31.36-.51.48s-.41.21-.64.25c-.23.04-.47.03-.73-.04l.21-.71c.16.03.32.03.46.01.15-.02.28-.06.4-.13.12-.07.23-.16.32-.27.09-.12.16-.26.21-.42.04-.13.06-.27.06-.4,0-.14-.02-.27-.07-.39-.04-.12-.11-.23-.21-.32-.09-.09-.21-.16-.36-.2-.16-.04-.3-.04-.43,0-.13.04-.25.12-.36.21-.11.09-.21.2-.3.33-.09.12-.17.24-.25.35-.12.18-.26.36-.41.54s-.32.33-.5.45c-.18.13-.37.21-.59.26-.21.05-.44.03-.69-.04-.24-.07-.44-.19-.59-.35s-.26-.35-.33-.56c-.07-.21-.1-.43-.1-.67s.04-.46.1-.68c.08-.26.2-.5.36-.73.16-.22.35-.41.57-.54.19-.12.4-.2.62-.24s.45-.03.68.04l-.21.71c-.18-.03-.34-.03-.49,0-.15.03-.29.09-.41.17-.12.08-.23.19-.32.32-.09.13-.16.28-.21.45-.04.13-.06.27-.07.41,0,.14.01.27.05.4.04.12.1.23.19.33.09.1.21.17.36.21.17.05.32.05.46.01Z"/>
        <path d="M130.54,95.23l-4.73-1.83.25-.66,4.73,1.83.64-1.64.58.22-1.53,3.93-.58-.22.64-1.64Z"/>
        <path d="M126.76,97.12l-2.09-1.01.31-.65,5.12,2.47-.72,1.5c-.12.24-.26.45-.43.63s-.35.32-.55.42c-.2.1-.42.14-.66.14-.23,0-.48-.06-.74-.19-.17-.08-.31-.18-.42-.29-.12-.12-.21-.24-.28-.38s-.12-.29-.15-.45-.04-.32-.04-.49l-2.71.03-.04-.02.33-.69h2.58l.49-1.02ZM126.87,98.25c-.07.15-.11.29-.13.44-.02.15-.01.29.02.43.04.14.1.26.19.37.09.11.21.21.37.28.17.08.32.12.47.13.15,0,.29-.02.42-.08.13-.06.25-.14.35-.25s.2-.25.28-.4l.41-.86-1.96-.95-.42.87Z"/>
        <path d="M122.9,103.41c-.16-.13-.31-.28-.44-.43-.13-.16-.24-.32-.33-.5s-.15-.36-.19-.55c-.03-.19-.04-.38,0-.58s.11-.4.23-.6c.12-.2.25-.37.41-.5.16-.13.33-.22.51-.29.18-.06.37-.1.57-.11.2,0,.4,0,.6.05.2.04.4.09.59.17.2.07.38.16.56.26l.56.33c.17.1.34.22.5.36.16.13.31.28.44.43.13.16.24.32.34.5.09.18.16.36.19.55.03.19.04.38,0,.58s-.11.4-.23.6c-.12.2-.26.37-.41.5s-.33.22-.51.29c-.18.06-.37.1-.57.1-.2,0-.4,0-.6-.04-.2-.04-.4-.1-.6-.17-.2-.08-.38-.17-.56-.26l-.56-.33c-.17-.1-.34-.22-.51-.36ZM124.72,103.66c.13.06.27.11.42.15.14.04.29.06.43.08.15.01.29,0,.42-.03.13-.03.26-.09.37-.17.11-.08.21-.19.3-.34.08-.14.13-.29.14-.43.01-.14,0-.28-.04-.41-.04-.13-.1-.26-.18-.38s-.18-.23-.28-.34c-.11-.11-.22-.21-.34-.29-.12-.09-.23-.17-.35-.24l-.57-.33c-.12-.06-.24-.13-.38-.19-.14-.06-.28-.11-.42-.15-.15-.04-.29-.07-.44-.08-.15-.01-.29,0-.42.03-.13.03-.26.08-.38.17s-.22.19-.3.34c-.08.15-.13.29-.15.43-.01.14,0,.28.04.41.04.13.1.25.18.37s.18.23.28.34c.11.1.22.2.34.29.12.09.24.17.36.24l.57.33c.12.07.25.13.38.19Z"/>
        <path d="M119.29,105.33l4.75.6-3.49-2.43.42-.6,4.68,3.24-.42.6-4.74-.6,3.48,2.42-.42.6-4.68-3.24.42-.6Z"/>
        <path d="M116.65,109.44c0-.13,0-.26.02-.38.03-.21.09-.41.18-.61s.21-.39.36-.56c.15-.18.31-.32.49-.43s.36-.19.56-.23c.19-.04.39-.06.59-.05s.4.05.6.11c.2.06.39.14.58.24.19.1.37.22.53.35l.51.42c.16.14.31.28.45.44.14.16.26.33.37.51.1.18.18.36.24.55.06.19.09.38.08.58,0,.19-.04.39-.1.58-.07.19-.18.38-.33.57-.17.21-.35.37-.56.49-.21.12-.42.2-.64.23-.22.03-.45.02-.68-.04s-.46-.16-.68-.31l.45-.55c.15.08.29.14.44.18.15.04.29.06.42.04.14-.01.27-.06.4-.13s.25-.17.36-.31c.11-.13.18-.27.22-.41.04-.14.05-.28.04-.42-.01-.14-.05-.28-.11-.41-.06-.13-.13-.26-.22-.39-.09-.12-.18-.24-.29-.35-.11-.11-.21-.21-.32-.3l-.52-.42c-.11-.09-.24-.17-.37-.25-.13-.08-.27-.15-.41-.2s-.29-.1-.43-.12c-.15-.03-.29-.03-.43-.01-.14.02-.28.06-.41.13-.13.07-.25.17-.36.3-.06.07-.13.16-.19.25-.06.09-.11.18-.15.28s-.07.2-.08.3c-.01.1,0,.2.02.3l.99.81.73-.9.47.38-1.16,1.43-1.62-1.31c-.02-.13-.04-.27-.04-.4Z"/>
        <path d="M114.7,114.53l.39.44-3.15,2.83-.39-.44,3.15-2.83Z"/>
        <path d="M111.36,117.52l.36.47-3.36,2.58-.36-.47,3.36-2.58Z"/>
        <path d="M107.79,120.25l.32.49-3.55,2.31-.32-.49,3.55-2.31Z"/>
        <path d="M104,122.7l.28.52-3.72,2.03-.28-.52,3.72-2.03Z"/>
        <path d="M91.56,126.16l-.21-.58,3.3-1.17,1.9,5.36-.68.24-1.7-4.78-2.62.93Z"/>
        <path d="M90.29,127.42l.06-1.54.7-.19-.3,5.97-.58.16-3.22-5.02.69-.19.82,1.3,1.83-.49ZM88.81,128.47l1.37,2.19.09-2.58-1.46.39Z"/>
        <path d="M85.42,132.24l-.93-4.98.69-.13.93,4.99,1.73-.32.11.61-4.15.77-.11-.61,1.73-.32Z"/>
        <path d="M81.85,130.31l-.21-2-2.75.29-.07-.61,3.47-.37.6,5.66-3.44.37-.07-.61,2.72-.29-.19-1.82-2.36.25-.06-.61,2.36-.25Z"/>
        <path d="M75.23,128.12l2.33,4.18-.11-4.25.73-.02.16,5.68-.73.02-2.33-4.18.11,4.24-.73.02-.16-5.69.73-.02Z"/>
        <path d="M70.22,128.95c.11-.21.25-.4.42-.54.17-.15.37-.26.6-.34s.48-.11.75-.09c.23.01.44.05.63.13.19.08.35.18.5.3.14.12.27.27.37.43.1.16.18.34.24.53.06.19.11.39.13.6.02.21.03.42.03.63l-.04.79c-.01.21-.04.42-.09.62-.04.2-.11.4-.19.58-.08.18-.18.35-.29.51-.12.15-.25.29-.41.4-.15.11-.33.19-.52.25-.19.06-.41.08-.65.07-.28-.01-.53-.07-.75-.17-.22-.1-.41-.23-.56-.4-.15-.17-.27-.37-.36-.6-.09-.23-.14-.48-.16-.75l.72.04c.01.17.05.33.1.49.05.15.12.29.21.4s.2.21.34.28c.14.07.3.11.49.12.17,0,.32-.01.46-.06.13-.05.25-.12.35-.21.1-.09.19-.2.26-.32s.13-.26.17-.4c.05-.14.08-.29.11-.43s.04-.29.05-.43l.04-.8c0-.14,0-.29,0-.44s-.03-.3-.06-.44c-.03-.15-.08-.29-.13-.42-.06-.13-.13-.25-.22-.35-.09-.1-.2-.19-.33-.25-.13-.06-.28-.1-.45-.11-.19,0-.36.01-.5.07-.14.05-.26.13-.37.24-.1.1-.18.22-.25.37s-.11.3-.14.47l-.72-.04c.05-.26.13-.5.24-.71Z"/>
        <path d="M65.79,133.16l-.81-.1,2.21-3.31.28-2.1.67.08-.26,2.11,1.31,3.76-.82-.1-.92-3-1.65,2.67Z"/>
        <path d="M62.78,131.19c-.11.09-.26.11-.45.07-.18-.04-.31-.12-.39-.25-.07-.12-.09-.26-.06-.42.03-.15.11-.27.22-.35s.27-.1.45-.07c.18.04.31.12.38.24.07.12.09.26.06.41-.03.15-.1.27-.22.36ZM63.48,127.84c-.11.09-.26.11-.45.07-.18-.04-.31-.12-.39-.25-.07-.12-.09-.26-.06-.42.03-.15.11-.27.22-.35.12-.08.27-.1.45-.07.18.04.31.12.38.24.07.12.09.26.06.41-.03.15-.1.27-.22.36Z"/>
        <path d="M52.43,127.41c.12-.13.27-.23.43-.3.08-.04.16-.06.25-.09.09-.02.18-.04.27-.05-.11-.11-.21-.23-.29-.36-.08-.13-.14-.26-.17-.41-.04-.14-.05-.29-.04-.43,0-.15.04-.3.09-.44.09-.24.22-.44.38-.59.16-.15.34-.27.54-.33.2-.07.42-.1.65-.09.23.01.46.06.7.15.24.09.45.21.63.35.18.14.32.31.42.5.11.18.17.39.18.61s-.02.45-.11.7c-.06.15-.13.28-.22.4s-.2.22-.32.3c-.12.08-.25.14-.39.19-.14.05-.29.07-.45.08.09.1.17.21.24.33.06.12.11.24.14.37.03.12.04.25.03.39s-.04.27-.09.4c-.09.23-.21.42-.35.57-.15.15-.31.26-.5.34-.18.07-.38.11-.6.1s-.44-.05-.66-.14c-.22-.08-.42-.2-.59-.34-.17-.14-.3-.3-.39-.47-.09-.18-.15-.37-.16-.58s.03-.43.11-.67c.07-.18.17-.33.29-.46ZM52.75,128.51c0,.13.03.25.07.36.05.11.12.21.21.3.09.09.21.15.34.2.13.05.26.07.38.07.12,0,.24-.03.35-.08s.21-.12.29-.22c.09-.1.16-.21.21-.35.05-.14.08-.27.08-.4,0-.13-.03-.25-.08-.35-.05-.11-.12-.21-.21-.29-.09-.08-.2-.15-.34-.2-.13-.05-.26-.07-.38-.07s-.24.03-.36.08c-.11.05-.2.12-.29.22-.09.09-.16.21-.21.35-.05.13-.08.26-.07.39ZM53.55,126.04c0,.14.03.28.09.4.06.12.14.23.25.33.11.1.23.17.38.23.15.06.3.09.44.08.14,0,.27-.03.4-.08.12-.06.23-.14.32-.24.09-.11.17-.23.23-.38.06-.15.09-.3.08-.44s-.03-.27-.09-.38-.14-.22-.25-.31c-.11-.09-.24-.17-.4-.23-.15-.06-.29-.09-.43-.09-.14,0-.27.02-.39.07-.12.05-.23.12-.32.23s-.17.23-.23.38c-.06.15-.08.29-.08.44Z"/>
        <path d="M50.14,125.47l-2.12,2.15-.81-.38,2.43-5.14.64.3-.97,2.05-1.07,2.12,2.26-2.32.38.18-.4,3.11.92-2.1.97-2.05.64.3-2.43,5.14-.81-.38.38-2.97Z"/>
        <path d="M45.62,121.98c0,.14.05.28.12.42.07.13.15.26.26.38.1.12.2.24.3.34.14.16.28.33.41.51.13.18.24.37.32.57.08.2.13.41.13.62s-.05.42-.18.63c-.12.21-.28.38-.47.49-.19.11-.39.19-.61.21-.22.03-.44.02-.67-.03-.23-.05-.44-.13-.63-.24-.21-.12-.4-.28-.56-.46-.16-.19-.28-.39-.36-.6s-.11-.44-.1-.68.08-.47.21-.7l.64.37c-.06.15-.1.3-.12.45-.01.15,0,.29.04.42s.1.26.2.37c.09.11.21.21.36.3.12.07.25.12.38.15s.26.04.39.02c.13-.02.25-.06.36-.13.11-.07.2-.17.28-.3.08-.14.11-.29.1-.42-.01-.14-.06-.27-.13-.4-.07-.13-.15-.25-.25-.37s-.19-.22-.29-.32c-.15-.16-.29-.33-.43-.52-.14-.19-.25-.38-.33-.59-.08-.2-.12-.41-.12-.63s.07-.44.19-.66c.13-.22.29-.39.48-.5.19-.11.4-.17.62-.19.22-.02.44,0,.67.05.23.06.44.14.64.25.24.13.44.31.63.52.18.21.31.44.4.68.08.21.11.43.1.66s-.08.44-.19.66l-.64-.37c.07-.17.1-.33.11-.48,0-.15-.02-.3-.07-.44-.05-.14-.13-.27-.24-.38-.11-.12-.24-.22-.39-.31-.12-.07-.25-.12-.39-.16-.14-.04-.27-.05-.4-.04-.13,0-.25.05-.37.11-.12.07-.21.17-.29.3-.09.15-.12.3-.12.44Z"/>
        <path d="M40.5,119.39l-.37.46-3.31-2.65.37-.46,3.31,2.65Z"/>
        <path d="M37,116.58l-.4.43-3.09-2.9.4-.43,3.09,2.9Z"/>
        <path d="M33.73,113.49l-.44.4-2.86-3.13.44-.4,2.86,3.13Z"/>
        <path d="M30.7,110.15l-.46.36-2.61-3.34.46-.36,2.61,3.34Z"/>
        <path d="M24.09,102.11c-.1.01-.2,0-.29-.02-.09-.03-.18-.07-.26-.14-.08-.07-.15-.15-.21-.26-.06-.11-.1-.21-.11-.32s0-.21.02-.3c.03-.09.07-.18.14-.25s.15-.14.25-.2l.2-.11c.1-.05.2-.09.3-.1s.2,0,.29.02c.1.03.18.08.26.14.08.07.15.15.21.26.06.11.1.21.11.32.01.1,0,.2-.02.29-.02.09-.07.18-.13.26-.06.08-.14.14-.24.2l-.2.11c-.1.05-.2.09-.3.1Z"/>
      </g>
      <g>
        <path d="M90.24,31.66c.07-.08.15-.13.24-.17s.18-.06.29-.06c.1,0,.21.02.33.07.11.04.21.1.29.18s.14.15.18.24c.04.09.06.18.06.28,0,.1-.02.21-.06.31l-.08.21c-.04.1-.1.19-.16.27s-.15.13-.23.17c-.09.04-.19.06-.29.06-.11,0-.21-.02-.33-.07s-.21-.1-.29-.17c-.08-.07-.13-.15-.17-.24-.04-.09-.06-.18-.06-.28,0-.1.02-.2.06-.31l.08-.21c.04-.1.1-.19.17-.27Z"/>
        <path d="M97.36,39.09l-.63-.43,4.79-2.86-2.54-1.73.36-.52,3.18,2.16-.23.34-4.92,3.04Z"/>
        <path d="M107.6,41.07c.12-.07.25-.13.39-.18.13-.05.27-.08.42-.1.14-.02.29-.02.43,0l.06.48c-.22.04-.42.1-.6.19s-.36.21-.52.36l-.43.4-.48-.52.42-.39c.09-.08.19-.16.31-.23ZM108.46,42c.12-.07.25-.13.39-.18.13-.05.27-.08.42-.1s.29-.02.43,0l.06.48c-.22.04-.42.1-.6.19s-.36.21-.52.36l-.43.4-.48-.52.42-.39c.09-.08.19-.16.31-.23Z"/>
        <path d="M112.02,53.47c-.28.07-.55.08-.79.05-.25-.04-.47-.13-.67-.28-.2-.15-.37-.34-.52-.6-.15-.25-.23-.5-.27-.75s0-.49.09-.72c.08-.23.23-.46.43-.67.2-.21.46-.41.77-.59l1.15-.67c.31-.18.61-.31.89-.38.28-.07.55-.08.8-.04.25.04.47.13.67.28s.38.34.52.59c.15.25.24.5.26.75s0,.49-.09.72c-.09.23-.23.45-.43.67-.2.21-.46.41-.77.59l-1.15.67c-.31.18-.61.31-.89.38ZM113.11,52.14s.1-.06.19-.11.17-.1.24-.14l-2.58-1.06c-.15.12-.28.24-.37.36-.09.12-.16.25-.19.38-.03.12-.04.25-.01.38.02.13.07.26.15.4.08.14.18.25.29.34.11.08.22.14.35.17.17.04.36.03.56-.02.21-.06.43-.15.67-.29l.7-.41ZM114.13,51.52c.15-.11.28-.23.37-.35s.17-.24.2-.37c.04-.13.05-.26.03-.39-.02-.14-.08-.28-.16-.42-.09-.15-.19-.27-.3-.35-.11-.09-.24-.14-.37-.17-.17-.03-.35-.02-.55.04s-.42.15-.65.28l-.82.48c-.06.03-.11.07-.17.1-.06.03-.11.07-.17.1l2.58,1.06Z"/>
        <path d="M113.87,57.43c-.29.04-.55.03-.79-.04-.24-.06-.45-.18-.64-.34s-.33-.38-.46-.65c-.12-.26-.18-.52-.19-.77,0-.25.05-.49.16-.71.11-.22.27-.43.49-.62s.5-.36.83-.51l1.21-.55c.33-.15.64-.24.93-.28.29-.04.55-.03.8.04.24.06.45.18.64.34.19.17.34.38.46.64.12.27.18.52.18.77,0,.25-.05.49-.16.71-.11.22-.28.43-.5.62s-.5.36-.83.51l-1.21.55c-.33.15-.64.24-.93.28ZM115.09,56.22s.1-.05.21-.09c.1-.05.18-.08.25-.11l-2.45-1.32c-.16.1-.3.21-.41.32-.11.11-.18.23-.23.36-.04.12-.06.24-.05.38,0,.13.05.27.11.41.07.15.15.27.25.37s.21.17.33.21c.17.06.35.07.56.03.21-.03.44-.11.7-.22l.73-.33ZM116.17,55.71c.16-.1.3-.2.41-.31.11-.11.19-.22.24-.35.05-.12.08-.25.07-.39s-.05-.28-.12-.44c-.07-.16-.16-.28-.26-.38-.1-.1-.22-.17-.35-.21-.16-.05-.34-.05-.55-.02-.21.03-.43.11-.67.22l-.87.39c-.06.03-.12.05-.18.08-.06.03-.12.05-.18.08l2.46,1.32Z"/>
        <path d="M116.05,61.65l-.56.18-.25-.75-1.25.42-.23-.69,1.25-.41-.81-2.46.4-.13,4.54,1.18.24.73-3.59,1.19.25.75ZM115.57,60.21l2.67-.88-.25-.04-2.99-.78.56,1.7Z"/>
        <path d="M118.79,68.18c.1.03.18.07.26.13s.13.14.18.23c.05.09.08.2.09.32s0,.23-.03.34-.07.19-.13.27c-.06.07-.14.13-.23.18-.09.04-.19.07-.3.08l-.23.02c-.11.01-.22,0-.31-.02-.1-.03-.18-.07-.26-.13-.08-.06-.14-.14-.19-.24s-.08-.2-.09-.32,0-.23.03-.33c.03-.1.07-.19.14-.26.06-.08.14-.14.23-.18.09-.05.19-.08.3-.08l.22-.02c.11-.01.22,0,.32.03Z"/>
        <path d="M116.33,80.21c-.27-.12-.49-.27-.66-.45-.17-.18-.29-.39-.36-.62-.07-.24-.09-.5-.05-.79.04-.29.12-.54.24-.75.12-.21.29-.39.51-.52.21-.13.46-.22.74-.27s.61-.05.97,0l1.32.17c.36.04.67.13.94.24.27.12.49.27.66.45.17.18.29.39.36.63.07.24.09.5.05.79-.04.29-.12.54-.25.75s-.3.39-.51.52c-.21.13-.46.22-.75.27-.29.05-.61.05-.97,0l-1.32-.17c-.36-.04-.67-.13-.94-.24ZM118.01,79.82s.11.01.22.03c.11.01.2.03.27.03l-1.4-2.4c-.19,0-.36.02-.51.06-.15.04-.28.1-.38.19-.1.08-.18.17-.24.29-.06.12-.1.26-.12.41-.02.16-.01.31.02.44s.09.25.17.35c.11.13.27.24.46.32s.43.14.71.17l.8.1ZM119.2,79.95c.19,0,.36-.01.51-.05s.28-.09.39-.17c.11-.08.2-.17.26-.3.06-.12.11-.27.13-.43.02-.17.01-.33-.02-.46-.04-.14-.1-.26-.19-.36-.11-.12-.27-.23-.46-.3-.19-.08-.42-.13-.69-.17l-.95-.12c-.06,0-.13-.02-.19-.02-.06,0-.13-.02-.2-.03l1.41,2.41Z"/>
        <path d="M115.39,84.49c-.25-.14-.46-.31-.61-.51-.15-.2-.25-.42-.3-.66s-.03-.51.03-.79c.07-.28.17-.52.32-.72s.33-.36.56-.47c.22-.11.48-.18.77-.19.29-.02.61.02.97.1l1.3.3c.35.08.66.2.91.34.25.15.46.32.61.52.15.2.25.42.3.66.05.25.04.51-.03.79-.07.28-.17.53-.32.72s-.34.35-.56.46c-.22.11-.48.17-.77.19-.29.02-.61-.01-.97-.1l-1.3-.3c-.35-.08-.66-.2-.91-.34ZM117.09,84.27s.11.03.22.05c.11.02.2.05.27.06l-1.14-2.54c-.19-.02-.36-.02-.52,0s-.29.08-.4.15c-.11.07-.2.15-.27.27-.07.11-.13.24-.16.4-.04.16-.05.31-.03.44.02.14.06.26.14.36.1.15.24.27.43.37.19.1.42.18.69.25l.78.18ZM118.26,84.53c.19.02.36.02.51,0,.15-.02.29-.06.4-.13.12-.06.21-.15.29-.27.08-.11.14-.25.17-.42.04-.17.05-.32.03-.46-.02-.14-.07-.27-.15-.38-.1-.14-.24-.25-.43-.35-.18-.1-.41-.18-.66-.24l-.93-.22c-.06-.01-.13-.03-.19-.04-.06-.01-.13-.03-.19-.04l1.15,2.54Z"/>
        <path d="M114.56,89.14l-.56-.19.26-.75-1.25-.43.24-.68,1.25.43.85-2.45.4.14,2.89,3.7-.25.73-3.57-1.24-.26.75ZM115.06,87.71l2.66.92-.17-.18-1.91-2.43-.59,1.69Z"/>
        <path d="M113.63,97.67c.1.1.19.21.27.33.08.12.15.24.21.38.06.13.1.27.12.42l-.45.19c-.09-.2-.2-.38-.33-.53-.13-.15-.29-.29-.48-.41l-.49-.31.37-.6.48.3c.1.07.21.15.3.24ZM114.3,96.59c.1.1.19.21.27.33.08.12.15.24.21.38.06.13.1.27.12.42l-.45.19c-.09-.2-.2-.38-.33-.53-.13-.15-.29-.29-.48-.41l-.49-.31.37-.6.48.3c.1.06.21.15.3.24Z"/>
        <path d="M104.4,102.51c-.11.23-.16.46-.15.68.01.27.08.5.19.7.12.2.25.39.42.57h0c-.01-.09-.01-.2,0-.3s.03-.21.06-.32c.03-.11.08-.22.15-.33.07-.11.15-.22.25-.32.2-.2.41-.33.63-.4s.44-.08.67-.05c.22.03.43.11.64.22.21.11.39.25.55.41.19.19.34.39.46.61s.19.45.21.68c.02.23,0,.46-.08.69-.08.23-.22.45-.43.66s-.42.35-.65.43c-.23.08-.46.1-.68.08-.27-.02-.54-.12-.83-.27s-.53-.35-.75-.56l-.19-.18c-.31-.31-.59-.65-.84-1.03-.25-.38-.39-.8-.42-1.26-.02-.28.04-.58.18-.9.14-.32.37-.65.7-.98l.05-.05.46.45-.05.05c-.26.26-.44.51-.55.74ZM105.46,103.99c-.05.11-.09.23-.1.35-.02.12-.02.24,0,.37.02.13.05.25.11.36l.17.17c.18.18.36.32.54.41s.36.16.52.19c.17.02.32.01.47-.03.14-.04.27-.12.37-.22.12-.12.2-.25.24-.39.04-.14.05-.28.03-.43-.02-.15-.07-.3-.16-.45s-.19-.29-.32-.42c-.12-.12-.25-.22-.39-.3-.14-.08-.29-.14-.44-.17-.15-.03-.29-.02-.44.01-.15.04-.28.12-.4.24-.09.09-.16.19-.21.3Z"/>
        <path d="M100.75,104.8l3.02,3.69.79-1.38.42.51-1.14,2.01-.04.04-3.61-4.4.56-.46Z"/>
        <path d="M95.22,112.52c0,.1,0,.2-.03.29s-.08.18-.15.25c-.07.08-.16.15-.27.2s-.22.09-.32.1c-.11,0-.21,0-.3-.03-.09-.03-.17-.08-.25-.15-.08-.07-.14-.15-.19-.25l-.1-.2c-.05-.1-.08-.2-.09-.3,0-.1,0-.2.03-.29.03-.09.08-.18.15-.26.07-.08.16-.14.27-.2s.22-.09.32-.1c.1,0,.2,0,.29.03.09.03.18.08.25.14.08.07.14.15.19.25l.1.2c.05.1.08.2.09.3Z"/>
        <path d="M84.57,112.94l1.13,4.63,1.31-.9.16.64-1.9,1.31h-.06s-1.35-5.51-1.35-5.51l.7-.17Z"/>
        <path d="M82.25,113.49l.07.51-1.57,2.3c-.14.21-.26.39-.35.54-.09.16-.16.3-.21.43-.05.13-.08.25-.1.36-.01.11-.01.22,0,.34.02.14.06.27.12.38.06.12.14.21.24.29.1.08.21.14.34.17s.27.04.43.02c.19-.03.35-.08.48-.15s.23-.16.31-.27c.08-.11.13-.24.16-.39.03-.15.03-.31,0-.49l.72-.1c.03.24.02.47-.03.69-.05.22-.15.42-.29.6-.13.18-.31.33-.52.45-.21.12-.46.21-.75.24-.27.04-.51.03-.73-.02s-.42-.13-.58-.25-.3-.27-.41-.45-.17-.38-.2-.61c-.02-.17-.02-.34.02-.51s.09-.34.16-.52c.08-.17.17-.35.27-.52.11-.17.22-.35.34-.52l1.29-1.85-2.83.38-.08-.58,3.69-.5Z"/>
        <path d="M70.58,118.96c-.04.13-.1.26-.17.39-.07.12-.15.24-.24.36-.09.11-.2.21-.32.29l-.37-.31c.14-.17.25-.35.32-.54.08-.19.12-.39.14-.62l.05-.58.7.06-.05.57c0,.12-.04.25-.08.38ZM71.84,119.07c-.04.13-.1.26-.17.39-.07.12-.15.24-.24.36-.09.11-.2.21-.32.29l-.37-.31c.14-.17.25-.35.32-.54.08-.19.13-.39.14-.61l.05-.58.7.06-.05.57c-.01.12-.04.25-.08.38Z"/>
        <path d="M60.26,112.82c.16-.24.35-.43.56-.56.21-.14.43-.22.68-.24.25-.03.51,0,.79.1.28.09.51.21.7.38.19.16.33.36.42.6.09.23.14.49.13.78s-.06.61-.17.96l-.41,1.27c-.11.34-.25.64-.41.88-.16.24-.35.43-.56.56-.21.14-.43.22-.68.24-.25.03-.51,0-.78-.09-.28-.09-.51-.22-.7-.38s-.33-.36-.42-.59c-.09-.23-.13-.49-.13-.79s.06-.61.17-.96l.41-1.27c.11-.34.25-.64.41-.88ZM59.99,115.69c-.04.18-.05.35-.05.51s.04.29.1.41c.05.12.13.22.24.31.11.09.24.16.4.21.16.05.32.07.46.06.14-.01.27-.05.39-.12.14-.09.27-.22.38-.4s.21-.39.29-.64l.29-.91c.02-.06.04-.12.06-.19.02-.06.04-.12.06-.19l-2.63.95ZM60.34,114.55s-.04.11-.07.21c-.03.11-.06.19-.08.26l2.62-.94c.04-.19.05-.36.03-.52-.01-.16-.05-.29-.11-.41-.06-.11-.14-.21-.24-.29-.1-.08-.23-.15-.38-.19-.16-.05-.3-.07-.44-.06-.14,0-.26.04-.37.11-.15.08-.29.22-.4.4s-.22.4-.3.67l-.25.77Z"/>
        <path d="M52.85,111.76c-.08.06-.17.11-.26.13-.09.02-.19.03-.29.01-.1-.02-.21-.06-.31-.12-.11-.06-.19-.13-.26-.22s-.11-.17-.14-.27c-.02-.09-.03-.19,0-.29.02-.1.05-.2.11-.3l.12-.19c.06-.1.12-.18.2-.24s.17-.11.26-.13c.1-.02.2-.03.3-.01.1.02.21.06.31.12.1.06.19.13.25.22.06.08.11.17.13.27.03.09.03.19.02.29-.02.1-.05.2-.11.29l-.12.2c-.06.1-.13.18-.21.24Z"/>
        <path d="M44.57,102.67c.25-.15.5-.24.75-.27.25-.03.49,0,.72.08.23.08.46.23.67.43.21.2.37.41.46.64s.14.47.12.72c-.01.25-.09.5-.22.76-.13.26-.32.52-.57.79l-.91.97c-.25.26-.5.47-.75.61s-.5.24-.75.27c-.25.03-.49,0-.72-.08-.23-.08-.46-.22-.67-.42-.21-.2-.37-.41-.46-.64-.1-.23-.14-.47-.12-.72.02-.25.09-.5.23-.76.13-.26.32-.52.57-.79l.91-.97c.25-.26.5-.47.75-.61ZM43.1,105.14c-.11.15-.2.3-.26.44-.06.14-.09.28-.09.41,0,.13.02.26.08.39.06.12.15.24.27.36.12.12.25.2.39.25.13.05.27.07.4.06.17-.02.34-.08.52-.19.18-.11.36-.26.54-.46l.65-.69s.09-.09.13-.14c.04-.05.09-.1.14-.14l-2.78-.28ZM43.9,104.26s-.08.08-.15.16c-.08.08-.14.15-.19.2l2.77.29c.11-.15.2-.3.25-.45.06-.15.08-.29.07-.42,0-.12-.04-.25-.09-.37-.06-.12-.15-.23-.26-.34-.12-.11-.24-.19-.37-.25s-.25-.07-.38-.07c-.17.01-.35.07-.53.18-.18.11-.37.27-.56.47l-.55.59Z"/>
        <path d="M43.27,100.7c-.14,0-.28-.07-.4-.22-.12-.14-.17-.29-.16-.43.02-.14.09-.27.21-.37.12-.1.25-.15.39-.14s.28.08.4.22c.12.14.17.28.16.42-.02.14-.08.26-.2.36-.12.1-.25.15-.39.15Z"/>
        <path d="M41.18,96.62l-3.91,2.72,1.31.9-.54.38-1.91-1.29-.03-.05,4.67-3.25.41.59Z"/>
        <path d="M32.06,90.22c-.14.02-.28.03-.42.03-.14,0-.28-.02-.43-.05-.14-.03-.28-.08-.41-.15l.11-.47c.22.04.43.06.63.04.2-.02.41-.07.61-.15l.54-.22.26.66-.53.21c-.11.05-.24.08-.38.1ZM32.53,91.4c-.14.02-.28.03-.42.03-.14,0-.28-.02-.43-.06-.14-.03-.28-.08-.41-.15l.11-.47c.22.04.43.06.63.04.2-.01.41-.06.61-.15l.54-.22.26.66-.53.21c-.11.04-.24.08-.38.1Z"/>
        <path d="M30.45,78.69c.17.04.33.12.48.22.07.05.13.11.2.17.06.06.12.13.18.21.04-.15.09-.3.17-.43.07-.13.16-.25.27-.35.11-.1.22-.19.36-.25s.28-.11.43-.14c.25-.04.49-.03.7.03.21.06.4.16.56.3.16.14.3.31.4.52.11.2.18.43.22.68.04.25.04.49,0,.72s-.11.43-.22.61c-.11.18-.25.34-.44.46-.18.12-.4.21-.66.25-.16.03-.31.03-.46,0-.15-.02-.29-.06-.42-.13-.13-.06-.25-.15-.36-.25-.11-.1-.21-.22-.29-.35-.04.13-.1.26-.17.37-.07.11-.15.21-.25.3-.09.09-.2.16-.32.22-.12.06-.25.1-.39.12-.24.04-.47.03-.67-.02-.21-.05-.38-.14-.54-.27-.15-.12-.28-.28-.38-.47-.1-.19-.17-.41-.21-.64-.04-.24-.04-.46,0-.68.04-.21.11-.41.22-.58.11-.17.25-.31.43-.43.18-.12.39-.19.63-.23.19-.03.37-.02.54.02ZM29.65,79.51c-.11.07-.2.15-.28.24-.07.1-.12.21-.15.33s-.03.25,0,.39.06.26.13.37c.06.11.14.19.24.26.1.07.21.12.34.14.13.03.26.03.41,0s.27-.07.38-.13c.11-.06.2-.14.27-.24.07-.1.12-.2.15-.33.03-.12.03-.25,0-.39-.02-.14-.06-.26-.13-.37s-.14-.2-.24-.27c-.1-.07-.21-.12-.33-.14s-.26-.03-.4,0c-.14.02-.27.07-.38.13ZM32.2,78.98c-.12.07-.22.17-.3.28-.08.11-.13.24-.16.38-.03.14-.03.29,0,.45.03.16.08.3.15.43.07.12.16.22.27.3.11.08.23.13.37.16.14.03.29.03.44,0,.16-.03.3-.07.42-.15.12-.07.21-.16.29-.27.07-.11.12-.23.15-.37.03-.14.02-.29,0-.46-.03-.16-.07-.3-.14-.42s-.15-.23-.25-.31c-.1-.08-.22-.13-.36-.17s-.28-.04-.45,0c-.16.03-.3.08-.42.15Z"/>
        <path d="M30.12,74.08c.17.06.32.15.45.27.06.06.12.12.18.19.06.07.11.15.15.23.05-.15.12-.29.21-.41.08-.12.19-.23.3-.32.12-.09.24-.16.38-.21.14-.05.29-.08.44-.09.26-.01.49.02.69.1.21.08.38.2.52.36.15.16.26.34.35.56.08.21.13.45.15.7.01.25,0,.49-.07.72-.06.22-.15.42-.28.59-.13.17-.29.31-.48.41-.2.1-.42.17-.68.18-.16,0-.31,0-.45-.04s-.28-.09-.4-.17c-.12-.08-.23-.17-.33-.28-.1-.11-.19-.24-.26-.38-.05.13-.12.25-.21.35-.08.11-.17.2-.28.27-.1.08-.22.14-.34.18-.13.05-.26.07-.4.08-.25.01-.47-.01-.67-.09-.2-.07-.37-.18-.51-.32-.14-.14-.25-.31-.33-.51-.08-.2-.13-.42-.14-.66-.01-.24,0-.46.07-.67.06-.21.15-.39.27-.55.12-.16.28-.29.47-.38.19-.1.41-.15.65-.17.19,0,.37.02.54.08ZM29.25,74.82c-.12.06-.22.13-.3.21-.08.09-.14.2-.18.32-.04.12-.06.25-.05.39,0,.14.04.27.09.38.05.11.12.21.21.29.09.08.2.14.32.18.12.04.26.05.41.05.15,0,.28-.04.4-.09.12-.05.21-.12.29-.21.08-.09.14-.19.18-.31s.05-.25.05-.39c0-.14-.04-.26-.09-.38s-.12-.21-.21-.29c-.09-.08-.19-.14-.32-.18s-.26-.06-.4-.05c-.14,0-.27.04-.39.09ZM31.83,74.55c-.13.06-.24.14-.33.24-.09.1-.15.22-.2.36-.04.14-.06.28-.05.44,0,.16.04.31.1.44.06.13.14.24.24.33.1.09.22.15.36.2.13.04.28.06.44.05.16,0,.31-.04.43-.1.13-.06.23-.14.31-.24s.14-.22.18-.35.05-.29.04-.45c0-.16-.04-.3-.09-.43-.05-.13-.13-.24-.22-.33-.09-.09-.21-.16-.34-.2-.13-.05-.28-.06-.44-.06-.16,0-.3.04-.43.1Z"/>
      </g>
      <line class="cls-1" x1="74.74" y1="60.77" x2="74.74" y2="85.64"/>
      <line class="cls-1" x1="62.31" y1="73.2" x2="87.17" y2="73.2"/>
      <path d="M74.74,41.75c3.7,0,6.71,3.01,6.71,6.71s-3.01,6.71-6.71,6.71-6.71-3.01-6.71-6.71,3.01-6.71,6.71-6.71M74.74,41c-4.12,0-7.46,3.34-7.46,7.46s3.34,7.46,7.46,7.46,7.46-3.34,7.46-7.46-3.34-7.46-7.46-7.46h0Z"/>
      <path d="M74.74,46.48c1.1,0,1.99.89,1.99,1.99s-.89,1.99-1.99,1.99-1.99-.89-1.99-1.99.89-1.99,1.99-1.99M74.74,45.73c-1.51,0-2.74,1.23-2.74,2.74s1.23,2.74,2.74,2.74,2.74-1.23,2.74-2.74-1.23-2.74-2.74-2.74h0Z"/>
      <g>
        <path d="M18.93,58.6h1.69c.23,0,.46.03.69.09.22.06.42.15.6.27.17.12.31.28.42.47.1.19.15.42.15.68,0,.15-.03.28-.07.41-.05.12-.11.23-.19.33-.08.1-.17.18-.27.25-.1.07-.22.13-.35.19h0c.14.04.28.11.41.2.13.09.24.19.33.29.09.12.16.25.21.39.05.15.08.3.08.47,0,.27-.05.5-.15.7-.1.2-.24.37-.42.51-.17.14-.38.24-.6.32-.23.07-.46.11-.71.11h-1.82v-5.69ZM20.67,61.02c.13,0,.27-.02.4-.06.13-.04.25-.1.35-.18.1-.08.18-.17.25-.28.06-.11.09-.24.09-.39,0-.16-.03-.29-.09-.41-.06-.11-.14-.21-.24-.28-.1-.07-.22-.12-.36-.16-.13-.03-.27-.05-.41-.05h-.99v1.81h1.01ZM19.66,63.67h1.11c.15,0,.29-.03.43-.08.13-.05.25-.12.36-.2.1-.09.19-.19.25-.32.06-.12.09-.27.09-.43,0-.16-.02-.3-.08-.43-.06-.12-.13-.23-.23-.32-.1-.09-.21-.15-.35-.2s-.28-.07-.43-.08h-1.15v2.05Z"/>
        <path d="M26.99,62.38c-.03.21-.08.41-.15.6-.07.19-.15.37-.26.54-.11.17-.23.31-.38.44-.15.12-.31.22-.5.29-.19.07-.4.11-.63.11s-.45-.04-.63-.11c-.19-.07-.36-.17-.5-.29-.15-.12-.27-.27-.38-.44-.11-.17-.19-.35-.26-.54-.07-.19-.12-.39-.16-.6-.03-.21-.05-.41-.05-.61v-.65c0-.2.02-.41.05-.62.03-.21.08-.41.15-.6.07-.19.15-.37.26-.54s.23-.32.38-.44c.15-.12.31-.22.5-.29.19-.07.4-.11.63-.11s.45.04.64.11c.19.07.36.17.5.29.15.12.27.27.38.44s.19.35.26.54c.07.19.12.39.15.6.03.21.05.41.05.62v.65c0,.2-.02.41-.05.62ZM26.3,60.69c-.02-.15-.04-.29-.08-.44-.04-.14-.09-.28-.15-.41-.06-.13-.14-.25-.23-.35-.09-.1-.2-.18-.33-.24-.13-.06-.28-.09-.45-.09s-.31.03-.44.09c-.13.06-.24.14-.33.24-.09.1-.17.22-.23.35-.06.13-.11.27-.15.41-.04.15-.07.29-.08.44-.02.15-.03.29-.03.42v.66c0,.13.01.27.03.42.02.15.04.29.08.44.04.15.09.29.15.42s.14.25.23.35c.09.1.21.18.33.24.13.06.28.09.45.09s.32-.03.45-.09c.13-.06.24-.14.33-.24.09-.1.17-.21.23-.35.06-.13.11-.27.15-.42.04-.14.06-.29.08-.44.01-.15.02-.29.03-.43v-.66c0-.14-.01-.28-.03-.42Z"/>
        <path d="M31.39,62.38c-.03.21-.08.41-.15.6-.07.19-.15.37-.26.54-.11.17-.23.31-.38.44-.15.12-.31.22-.5.29-.19.07-.4.11-.63.11s-.45-.04-.63-.11c-.19-.07-.36-.17-.5-.29-.15-.12-.27-.27-.38-.44-.11-.17-.19-.35-.26-.54-.07-.19-.12-.39-.16-.6-.03-.21-.05-.41-.05-.61v-.65c0-.2.02-.41.05-.62.03-.21.08-.41.15-.6.07-.19.15-.37.26-.54s.23-.32.38-.44c.15-.12.31-.22.5-.29.19-.07.4-.11.63-.11s.45.04.64.11c.19.07.36.17.5.29.15.12.27.27.38.44s.19.35.26.54c.07.19.12.39.15.6.03.21.05.41.05.62v.65c0,.2-.02.41-.05.62ZM30.7,60.69c-.02-.15-.04-.29-.08-.44-.04-.14-.09-.28-.15-.41-.06-.13-.14-.25-.23-.35-.09-.1-.21-.18-.33-.24-.13-.06-.28-.09-.45-.09s-.31.03-.44.09c-.13.06-.24.14-.33.24-.09.1-.17.22-.23.35-.06.13-.11.27-.15.41-.04.15-.07.29-.08.44-.02.15-.03.29-.03.42v.66c0,.13.01.27.03.42.02.15.04.29.08.44.04.15.09.29.15.42s.14.25.23.35c.09.1.2.18.33.24.13.06.28.09.45.09s.32-.03.45-.09c.13-.06.24-.14.33-.24.09-.1.17-.21.23-.35.06-.13.11-.27.15-.42.04-.14.06-.29.08-.44.01-.15.02-.29.03-.43v-.66c0-.14-.01-.28-.03-.42Z"/>
        <path d="M34.22,59.21v5.07h-.7v-5.07h-1.76v-.62h4.22v.62h-1.76Z"/>
        <path d="M37.94,63.42c.09-.11.24-.16.43-.16s.33.05.43.16c.1.11.15.24.15.4s-.05.28-.15.39c-.1.1-.24.16-.43.16s-.33-.05-.42-.16c-.09-.11-.14-.23-.14-.38s.05-.29.14-.39Z"/>
        <path d="M41.69,61.96v2.32h-.72v-5.69h1.67c.27,0,.52.04.75.11s.44.18.62.32c.17.14.31.32.41.53.1.21.15.46.15.75,0,.18-.03.35-.08.51-.05.15-.13.29-.22.42s-.21.24-.34.33c-.13.1-.27.18-.43.25l1.21,2.43v.05h-.77l-1.12-2.32h-1.14ZM42.66,61.37c.16,0,.31-.03.46-.08.14-.05.27-.12.38-.21.11-.09.19-.2.25-.33.06-.13.09-.28.09-.46,0-.18-.03-.34-.09-.48-.06-.14-.14-.25-.25-.35-.11-.09-.23-.16-.38-.21-.15-.05-.31-.07-.48-.07h-.95v2.18h.97Z"/>
        <path d="M46.1,61.65v2.02h2.77v.61h-3.49v-5.69h3.46v.62h-2.73v1.83h2.38v.61h-2.38Z"/>
        <path d="M53.22,63.3c-.1.22-.23.41-.39.56-.16.16-.36.28-.58.37-.22.09-.47.13-.74.13-.23,0-.45-.03-.64-.1s-.36-.16-.51-.28c-.15-.12-.28-.26-.39-.41-.11-.16-.2-.33-.27-.52-.07-.19-.13-.38-.16-.59-.04-.21-.05-.41-.06-.62v-.79c0-.21.02-.42.06-.62.04-.21.09-.4.16-.59.07-.19.16-.36.27-.52.11-.16.24-.3.39-.42.15-.12.32-.21.51-.28.19-.07.4-.1.64-.1.28,0,.54.04.76.13.22.09.42.21.58.37.16.16.29.35.39.58.1.22.16.47.19.74h-.72c-.02-.17-.06-.33-.12-.48-.06-.15-.13-.28-.23-.39-.1-.11-.21-.2-.35-.26-.14-.06-.3-.1-.49-.1-.17,0-.32.03-.46.08-.13.06-.24.13-.34.23-.1.1-.18.21-.24.34-.06.13-.12.26-.15.41-.04.14-.07.29-.08.44-.02.15-.03.29-.03.44v.8c0,.14,0,.29.03.44.02.15.04.3.08.44.04.15.09.28.15.41.06.13.14.24.24.34.1.1.21.18.34.23.13.06.28.08.46.08.19,0,.35-.03.49-.09.14-.06.26-.14.35-.25.1-.11.17-.23.23-.38.06-.15.1-.31.12-.48h.72c-.03.26-.1.5-.2.72Z"/>
        <path d="M58.85,64.77l2.38-6.18h.64l-2.37,6.18h-.65Z"/>
        <path d="M63.25,64.77l2.38-6.18h.64l-2.37,6.18h-.65Z"/>
      </g>
    </g>
  </g>
</svg>