<?xml version="1.0" encoding="UTF-8"?>
<svg id="Layer_2" data-name="Layer 2" xmlns="http://www.w3.org/2000/svg" viewBox="0 0 174.19 93.31">
  <defs>
    <style>
      .cls-1, .cls-2 {
        fill: none;
        stroke: #000;
        stroke-miterlimit: 10;
        stroke-width: .75px;
      }

      .cls-2 {
        stroke-dasharray: 4.03 4.03;
      }
    </style>
  </defs>
  <g id="Layer_1-2" data-name="Layer 1">
    <g>
      <g>
        <ellipse cx="1.97" cy="25.81" rx="1.97" ry="4.9"/>
        <ellipse cx="14.5" cy="25.81" rx="2.7" ry="4.9"/>
        <ellipse cx="27.04" cy="25.81" rx="3.43" ry="4.9"/>
        <ellipse cx="39.57" cy="25.81" rx="4.16" ry="4.9"/>
        <circle cx="52.1" cy="25.81" r="4.9"/>
        <ellipse cx="64.64" cy="25.81" rx="4.16" ry="4.9"/>
        <ellipse cx="77.17" cy="25.81" rx="3.43" ry="4.9"/>
        <ellipse cx="89.71" cy="25.81" rx="2.7" ry="4.9"/>
        <ellipse cx="102.24" cy="25.81" rx="1.97" ry="4.9"/>
      </g>
      <circle class="cls-2" cx="144.29" cy="29.9" r="29.53" transform="translate(-3.01 33.95) rotate(-13.28)"/>
      <g>
        <path class="cls-1" d="M126.47,24.17c.34-1.09,1.51-1.68,2.6-1.34.88.28,1.43,1.1,1.43,1.97,0,.21-.03.42-.1.63-.35,1.09-1.52,1.69-2.6,1.34-1.08-.34-1.68-1.51-1.33-2.6Z"/>
        <path class="cls-1" d="M129.11,37.06c-1.08.36-2.25-.23-2.6-1.32-.36-1.09.23-2.25,1.32-2.61,1.09-.36,2.25.23,2.61,1.32.07.21.1.43.1.64,0,.87-.55,1.68-1.43,1.96Z"/>
        <path class="cls-1" d="M133.23,14.79c.92-.68,2.21-.48,2.89.45.27.37.4.79.4,1.22,0,.63-.29,1.26-.85,1.67-.92.68-2.21.48-2.89-.45-.68-.92-.48-2.21.45-2.89Z"/>
        <path class="cls-1" d="M136.21,44.61c-.67.93-1.96,1.14-2.89.46-.92-.67-1.13-1.96-.46-2.88.67-.93,1.96-1.14,2.89-.47.56.41.85,1.04.85,1.68,0,.42-.13.84-.39,1.21Z"/>
        <path class="cls-1" d="M144.22,11.18s.03,0,.04,0c.01,0,.02,0,.03,0,1.14,0,2.07.93,2.07,2.07s-.92,2.06-2.07,2.06h-.06c-1.14,0-2.07-.92-2.07-2.05,0-1.14.92-2.07,2.06-2.08Z"/>
        <path class="cls-1" d="M146.39,46.56c0,1.14-.92,2.06-2.06,2.07-1.14,0-2.07-.92-2.07-2.07s.92-2.07,2.06-2.07c1.14,0,2.07.92,2.07,2.06h0Z"/>
        <path class="cls-1" d="M152.4,15.21c.68-.92,1.96-1.13,2.89-.45.56.4.85,1.03.85,1.67,0,.42-.13.85-.39,1.21-.68.92-1.97,1.12-2.89.45-.92-.67-1.12-1.96-.45-2.89Z"/>
        <path class="cls-1" d="M155.32,45.03c-.92.68-2.22.48-2.89-.45-.68-.92-.48-2.22.45-2.89.92-.67,2.22-.47,2.89.45.27.37.4.79.4,1.22,0,.63-.3,1.26-.85,1.67Z"/>
        <path class="cls-1" d="M159.49,22.77c1.09-.35,2.25.24,2.6,1.33.07.21.1.43.1.64,0,.87-.56,1.68-1.43,1.96-1.09.35-2.25-.24-2.61-1.33-.35-1.08.24-2.25,1.33-2.6Z"/>
        <path class="cls-1" d="M162.11,35.66c-.35,1.09-1.52,1.68-2.6,1.33-1.09-.35-1.68-1.52-1.33-2.6.35-1.09,1.52-1.69,2.6-1.34.88.28,1.43,1.1,1.43,1.97,0,.21-.03.42-.1.63Z"/>
      </g>
      <polygon points="8.83 .37 1.63 .37 0 .37 0 2 0 9.21 1.63 9.21 1.63 3.15 7.44 8.97 8.59 7.82 2.78 2 8.83 2 8.83 .37"/>
      <polygon points="164.98 93.31 172.18 93.31 173.81 93.31 173.81 91.68 173.81 84.48 172.18 84.48 172.18 90.53 166.37 84.72 165.22 85.87 171.03 91.68 164.98 91.68 164.98 93.31"/>
      <polygon points="173.81 78.8 173.81 71.6 173.81 69.97 172.18 69.97 164.98 69.97 164.98 71.6 171.03 71.6 165.22 77.41 166.37 78.56 172.18 72.75 172.18 78.8 173.81 78.8"/>
      <polygon points="123.59 69.97 116.39 69.97 114.76 69.97 114.76 71.6 114.76 78.8 116.39 78.8 116.39 72.75 122.2 78.56 123.35 77.41 117.54 71.6 123.59 71.6 123.59 69.97"/>
      <polygon points="114.76 84.48 114.76 91.68 114.76 93.31 116.39 93.31 123.59 93.31 123.59 91.68 117.54 91.68 123.35 85.87 122.2 84.72 116.39 90.53 116.39 84.48 114.76 84.48"/>
      <g>
        <path d="M4.09,56.4l-1.02,3.44H.51l4.86-14.93h2.18l4.78,14.93h-2.55l-1-3.44h-4.69ZM8.17,54.29l-1.71-5.91-1.74,5.91h3.46Z"/>
        <path d="M22.89,57.8v2.03h-9.6v-14.93h2.47v12.9h7.13Z"/>
        <path d="M30.62,46.94v12.89h-2.45v-12.89h-4.57v-2.04h11.63v2.04h-4.6Z"/>
        <path d="M38.79,53.14v4.67h7.21v2.03h-9.68v-14.93h9.63v2.04h-7.16v4.2h6.17v1.99h-6.17Z"/>
        <path d="M50.23,54.04v5.79h-2.46v-14.93h4.74c.77,0,1.48.11,2.13.3s1.21.47,1.68.84c.46.38.83.84,1.09,1.4s.39,1.21.39,1.95c0,.51-.07.98-.2,1.39-.13.42-.32.79-.56,1.13s-.53.63-.86.88-.71.47-1.12.66l3.19,6.24v.13h-2.64l-2.86-5.79h-2.52ZM52.53,52.03c.44,0,.83-.07,1.18-.2s.65-.31.9-.55c.22-.21.39-.46.51-.76s.18-.64.18-1.03c0-.43-.07-.81-.2-1.13-.13-.32-.33-.6-.59-.82-.24-.21-.53-.36-.87-.47-.34-.11-.72-.16-1.15-.17h-2.28v5.12h2.31Z"/>
        <path d="M66.46,59.83l-4.85-10.27v10.27h-2.5v-14.93h2.5l4.82,10.23.02-10.23h2.48v14.93h-2.47Z"/>
        <path d="M73.4,56.4l-1.02,3.44h-2.56l4.86-14.93h2.18l4.78,14.93h-2.55l-1-3.44h-4.69ZM77.49,54.29l-1.71-5.91-1.74,5.91h3.46Z"/>
        <path d="M88.38,46.94v12.89h-2.45v-12.89h-4.57v-2.04h11.63v2.04h-4.6Z"/>
        <path d="M96.55,53.14v4.67h7.21v2.03h-9.68v-14.93h9.63v2.04h-7.16v4.2h6.17v1.99h-6.17Z"/>
      </g>
      <g>
        <path d="M2.2,78.97h-1.08v-8.53h2.77c.38,0,.75.07,1.09.18s.64.28.9.49.46.48.61.8.23.68.23,1.09-.08.77-.23,1.09-.35.58-.61.79-.56.38-.9.49-.7.17-1.09.18h-1.68v3.42ZM3.88,74.66c.25,0,.48-.04.69-.12s.39-.18.55-.33.28-.31.37-.51.13-.43.13-.69-.04-.49-.13-.7-.21-.38-.36-.53c-.16-.14-.34-.26-.55-.33s-.44-.12-.69-.12h-1.68v3.33h1.68Z"/>
        <path d="M13.09,76.12c-.05.31-.12.61-.23.9s-.23.56-.39.81-.35.47-.57.66-.47.33-.75.44-.6.16-.95.16-.67-.05-.95-.16-.53-.25-.75-.44-.41-.41-.57-.66-.29-.52-.39-.81c-.11-.29-.18-.59-.23-.9s-.08-.62-.08-.92v-.97c0-.3.03-.61.08-.92s.13-.61.23-.9c.1-.29.23-.56.39-.81s.35-.47.57-.67c.22-.19.47-.33.75-.44s.6-.16.95-.16.67.05.96.16.54.25.76.44.41.41.57.66.29.52.4.81c.1.29.18.59.23.9s.08.62.08.93v.97c0,.3-.03.61-.08.92ZM12.06,73.58c-.02-.22-.06-.44-.12-.66-.06-.21-.13-.42-.23-.62s-.21-.37-.35-.52c-.14-.15-.31-.27-.5-.35s-.41-.13-.67-.13-.47.04-.66.13-.36.21-.5.36c-.14.15-.26.33-.35.52s-.17.4-.22.62c-.06.22-.1.44-.13.66s-.04.43-.04.63v.98c0,.2.02.41.04.63s.07.44.13.66c.06.22.13.43.23.63s.21.37.35.52c.14.15.31.27.5.36s.41.13.67.13.48-.04.67-.13.36-.21.5-.36c.14-.15.25-.32.34-.52s.17-.41.23-.62c.05-.21.09-.43.11-.66s.03-.44.04-.64v-.98c0-.2-.02-.42-.04-.64Z"/>
        <path d="M13.63,70.44h1.03l.62,5.88.04.34.06-.35,1.03-5.87h.94l1.04,5.88.06.35.04-.35.62-5.87h1.03l-1.04,8.53h-1.11l-1.04-6.07-.06-.36-.06.36-1.04,6.06h-1.11l-1.04-8.53Z"/>
        <path d="M21.95,75.03v3.02h4.15v.92h-5.24v-8.53h5.19v.93h-4.1v2.74h3.56v.92h-3.56Z"/>
        <path d="M28.54,75.49v3.48h-1.08v-8.53h2.5c.4,0,.77.06,1.12.17s.66.26.93.47c.26.21.47.48.62.79s.23.69.23,1.12c0,.28-.04.53-.12.76s-.19.44-.33.63-.31.35-.5.5-.41.27-.64.37l1.81,3.64v.07h-1.15l-1.68-3.48h-1.71ZM30,74.6c.24,0,.47-.04.69-.11s.4-.18.57-.31c.16-.14.29-.3.38-.5s.14-.42.14-.68c0-.27-.04-.51-.13-.72s-.21-.38-.38-.52c-.16-.14-.35-.24-.57-.31s-.46-.11-.72-.11h-1.42v3.27h1.45Z"/>
        <path d="M36.42,72.54c.14-.16.35-.25.64-.25s.5.08.64.24.22.36.22.59-.07.42-.22.58-.36.23-.64.23-.49-.08-.64-.24-.21-.35-.21-.58.07-.43.21-.59ZM36.42,77.67c.14-.16.35-.25.64-.25s.5.08.64.24.22.36.22.59-.07.42-.22.58-.36.23-.64.23-.49-.08-.64-.24-.21-.35-.21-.58.07-.43.21-.59Z"/>
        <path d="M89.91,73.46c-.11.25-.25.47-.44.65-.09.09-.19.17-.3.25s-.23.15-.35.21c.22.09.42.21.59.35s.33.3.46.48c.12.18.22.38.29.59s.1.44.1.67c0,.39-.07.73-.21,1.03s-.33.55-.58.76c-.25.21-.53.36-.86.47s-.68.16-1.05.16-.74-.05-1.07-.16-.62-.26-.86-.47c-.25-.2-.44-.46-.58-.76s-.21-.65-.21-1.04c0-.24.03-.46.1-.68s.16-.41.29-.59c.12-.18.28-.33.45-.47s.37-.26.59-.35c-.19-.09-.36-.21-.51-.34s-.28-.28-.39-.44c-.11-.16-.19-.34-.25-.53s-.09-.39-.09-.6c0-.37.06-.7.19-.99s.3-.54.52-.74c.22-.2.48-.35.79-.46s.64-.16,1-.16.69.05,1,.16.58.26.8.46.4.44.53.74.19.62.19.99c0,.29-.06.55-.16.8ZM89.07,75.99c-.08-.2-.19-.37-.34-.52-.14-.14-.32-.25-.52-.33s-.42-.12-.66-.12-.47.04-.67.12-.37.19-.51.33c-.14.14-.25.32-.33.52s-.11.42-.11.66.04.47.11.66.18.36.33.49.31.23.51.3.43.11.68.11.46-.04.66-.11.37-.17.52-.3c.14-.13.25-.3.33-.49s.12-.41.12-.66-.04-.46-.12-.66ZM88.88,72.09c-.07-.18-.17-.34-.3-.47-.13-.13-.28-.23-.46-.3s-.37-.11-.58-.11-.4.03-.57.1-.32.17-.45.3-.22.28-.29.47-.1.38-.1.61.03.42.1.6.17.33.3.45c.12.13.27.23.45.3s.37.1.58.1.4-.03.57-.1.33-.17.46-.3.22-.28.29-.46.11-.38.11-.6-.04-.41-.11-.59Z"/>
        <path d="M93.3,78.97h-1.14l3.52-7.58h-4.62v-.95h5.77v.61l-3.53,7.92Z"/>
        <path d="M97.37,71.34c.07-.2.17-.38.3-.53.13-.15.29-.27.49-.36s.42-.13.67-.13.49.04.68.13.36.21.5.36c.13.15.23.33.3.53s.1.41.1.64v.45c0,.22-.03.43-.1.63s-.17.37-.3.52c-.13.15-.3.27-.49.36s-.42.13-.67.13-.48-.04-.68-.13-.36-.21-.5-.36c-.13-.15-.23-.32-.3-.52s-.1-.41-.1-.63v-.45c0-.22.03-.43.1-.64ZM98.12,72.77c.03.11.07.21.13.3.06.09.14.16.24.21s.21.08.35.08.25-.03.35-.08.17-.12.23-.21c.06-.09.1-.18.13-.3s.04-.23.04-.35v-.45c0-.12-.01-.24-.04-.35s-.07-.22-.13-.31c-.06-.09-.14-.16-.24-.21s-.21-.08-.35-.08-.25.03-.35.08-.17.12-.23.21c-.06.09-.11.19-.13.31s-.04.23-.04.35v.45c0,.12.01.24.04.35ZM98.69,77.5l3.32-6.08.65.36-3.32,6.08-.65-.36ZM100.89,76.36c.07-.2.17-.38.3-.53s.3-.27.49-.36.42-.13.67-.13.48.04.68.13.36.21.49.36.23.33.3.53.1.41.1.63v.46c0,.22-.03.43-.1.63s-.17.37-.3.52c-.13.15-.3.27-.49.36s-.42.13-.67.13-.49-.04-.68-.13-.36-.21-.5-.36c-.13-.15-.23-.32-.3-.52s-.1-.41-.1-.63v-.46c0-.22.03-.43.1-.63ZM101.64,77.8c.03.11.08.21.14.3.06.09.14.16.23.21s.22.08.36.08.25-.03.35-.08.17-.12.23-.21c.06-.09.1-.19.13-.3s.04-.23.04-.35v-.46c0-.12-.01-.24-.04-.35s-.07-.21-.13-.3c-.06-.09-.14-.16-.24-.21s-.21-.08-.35-.08-.26.03-.35.08-.17.12-.23.21c-.06.09-.11.19-.13.3s-.04.23-.04.35v.46c0,.12.01.24.04.35Z"/>
        <path d="M.42,84.44h1.16l1.88,6.37.12.42.13-.43,1.89-6.36h1.15l-2.69,8.53h-.94l-2.7-8.53Z"/>
        <path d="M13.09,90.12c-.05.31-.12.61-.23.9s-.23.56-.39.81-.35.47-.57.66-.47.33-.75.44-.6.16-.95.16-.67-.05-.95-.16-.53-.25-.75-.44-.41-.41-.57-.66-.29-.52-.39-.81c-.11-.29-.18-.59-.23-.9s-.08-.62-.08-.92v-.97c0-.3.03-.61.08-.92s.13-.61.23-.9c.1-.29.23-.56.39-.81s.35-.47.57-.67c.22-.19.47-.33.75-.44s.6-.16.95-.16.67.05.96.16.54.25.76.44.41.41.57.66.29.52.4.81c.1.29.18.59.23.9s.08.62.08.93v.97c0,.3-.03.61-.08.92ZM12.06,87.58c-.02-.22-.06-.44-.12-.66-.06-.21-.13-.42-.23-.62s-.21-.37-.35-.52c-.14-.15-.31-.27-.5-.35s-.41-.13-.67-.13-.47.04-.66.13-.36.21-.5.36c-.14.15-.26.33-.35.52s-.17.4-.22.62c-.06.22-.1.44-.13.66s-.04.43-.04.63v.98c0,.2.02.41.04.63s.07.44.13.66c.06.22.13.43.23.63s.21.37.35.52c.14.15.31.27.5.36s.41.13.67.13.48-.04.67-.13.36-.21.5-.36c.14-.15.25-.32.34-.52s.17-.41.23-.62c.05-.21.09-.43.11-.66s.03-.44.04-.64v-.98c0-.2-.02-.42-.04-.64Z"/>
        <path d="M19.62,92.05v.92h-5.26v-8.53h1.08v7.61h4.17Z"/>
        <path d="M23.94,85.36v7.61h-1.05v-7.61h-2.64v-.93h6.33v.93h-2.64Z"/>
        <path d="M28.65,90.76l-.69,2.21h-1.08l2.75-8.53h.91l2.71,8.53h-1.08l-.67-2.21h-2.85ZM31.21,89.82l-1.12-3.7-1.14,3.7h2.27Z"/>
        <path d="M39.12,92.27c-.15.13-.3.24-.46.33-.27.16-.57.29-.88.37s-.65.12-1,.11c-.35,0-.67-.06-.97-.16s-.56-.25-.79-.43c-.23-.18-.44-.39-.62-.64s-.32-.51-.44-.8c-.12-.29-.21-.58-.27-.9s-.09-.63-.1-.95v-.99c0-.32.03-.63.08-.95s.13-.62.24-.91.25-.56.41-.81.36-.46.59-.65c.23-.18.48-.32.77-.43s.61-.16.97-.16c.4,0,.77.06,1.1.18s.63.3.88.52c.25.23.45.51.6.83s.25.68.28,1.08h-1.07c-.04-.25-.11-.47-.2-.68s-.21-.39-.35-.54c-.15-.15-.32-.26-.53-.35s-.44-.13-.71-.13-.49.04-.69.13-.37.21-.52.35-.27.32-.37.52-.18.41-.24.62-.11.44-.13.67-.04.45-.04.66v1c0,.21.02.44.06.67s.08.45.16.67.16.43.27.62.24.37.4.52c.15.15.33.27.53.35s.43.13.69.14c.15,0,.3,0,.47-.02s.32-.05.47-.09.29-.11.43-.19.24-.18.33-.31v-1.92s-1.72,0-1.72,0v-.91h2.77l.02,3.13c-.13.16-.27.3-.42.42Z"/>
        <path d="M41.76,89.03v3.02h4.15v.92h-5.24v-8.53h5.19v.93h-4.1v2.74h3.56v.92h-3.56Z"/>
        <path d="M49.62,86.54c.14-.16.35-.25.64-.25s.5.08.64.24.22.36.22.59-.07.42-.22.58-.36.23-.64.23-.49-.08-.64-.24-.21-.35-.21-.58.07-.43.21-.59ZM49.62,91.67c.14-.16.35-.25.64-.25s.5.08.64.24.22.36.22.59-.07.42-.22.58-.36.23-.64.23-.49-.08-.64-.24-.21-.35-.21-.58.07-.43.21-.59Z"/>
        <path d="M87.26,92.97v-7.15l-2.23.85v-.99l3.23-1.24h.09v8.53h-1.08Z"/>
        <path d="M91.07,92.97v-.78l2.79-3.11c.25-.28.46-.52.63-.74s.3-.41.4-.6c.1-.18.17-.35.22-.51s.06-.33.06-.5c0-.21-.03-.41-.1-.59s-.17-.35-.3-.48c-.13-.14-.29-.25-.48-.33s-.4-.12-.63-.12c-.29,0-.53.04-.74.12s-.38.2-.52.35c-.14.15-.25.34-.31.55s-.1.46-.1.72h-1.09c0-.36.06-.7.19-1.02s.31-.6.54-.83c.23-.24.52-.43.86-.57s.73-.21,1.17-.21c.4,0,.76.06,1.09.18s.59.28.82.5.39.46.51.75.18.6.18.94c0,.25-.04.5-.13.75s-.2.49-.35.74c-.15.24-.32.48-.51.72s-.4.47-.61.71l-2.29,2.48h4.28v.88h-5.59Z"/>
        <path d="M97.42,84.44h1.16l1.88,6.37.12.42.13-.43,1.89-6.36h1.15l-2.69,8.53h-.94l-2.7-8.53Z"/>
      </g>
      <path d="M59.73,1.12c2.02,0,3.67,1.64,3.67,3.67s-1.64,3.67-3.67,3.67H17.61c-2.02,0-3.67-1.64-3.67-3.67s1.64-3.67,3.67-3.67h42.12M59.73.38H17.61c-2.44,0-4.42,1.98-4.42,4.42h0c0,2.44,1.98,4.42,4.42,4.42h42.12c2.44,0,4.42-1.98,4.42-4.42h0c0-2.44-1.98-4.42-4.42-4.42h0Z"/>
      <path d="M100.27,1.12c2.02,0,3.67,1.64,3.67,3.67s-1.64,3.67-3.67,3.67-3.67-1.64-3.67-3.67,1.64-3.67,3.67-3.67M100.27.38c-2.44,0-4.42,1.98-4.42,4.42s1.98,4.42,4.42,4.42,4.42-1.98,4.42-4.42-1.98-4.42-4.42-4.42h0Z"/>
      <g>
        <path d="M71.53,7.65v-.7l1.84-2c.15-.16.27-.31.38-.44s.18-.25.25-.36c.06-.11.11-.21.13-.3s.04-.19.04-.28c0-.13-.02-.25-.06-.35s-.09-.19-.16-.27c-.07-.07-.16-.13-.26-.17s-.21-.06-.33-.06c-.16,0-.29.02-.41.07s-.21.11-.29.19c-.08.09-.14.19-.18.32s-.06.27-.06.43h-1.02c0-.25.05-.49.14-.71s.23-.42.4-.58c.17-.17.38-.3.62-.4s.52-.14.82-.14c.28,0,.54.04.76.12s.41.19.56.34c.15.15.26.32.34.52s.12.42.12.67c0,.19-.03.36-.09.53s-.14.34-.24.5c-.11.16-.23.33-.38.5s-.31.35-.48.53l-1.17,1.24h2.57v.81h-3.85Z"/>
        <path d="M79.66,6.45c-.08.28-.21.51-.37.7-.16.19-.35.33-.58.43s-.49.15-.78.15-.54-.05-.77-.14-.42-.24-.58-.43c-.16-.19-.29-.42-.37-.7s-.13-.6-.13-.97v-1.35c0-.37.04-.69.13-.97s.21-.52.37-.71c.16-.19.35-.33.58-.43s.48-.15.77-.15.55.05.78.15.42.24.58.43c.16.19.28.43.37.71s.13.6.13.97v1.35c0,.37-.04.69-.13.97ZM78.77,3.84c-.01-.21-.04-.39-.08-.54s-.1-.27-.19-.37c-.06-.08-.15-.14-.24-.17s-.21-.06-.33-.06c-.13,0-.25.02-.35.07s-.18.12-.25.21c-.08.1-.14.23-.17.4s-.05.36-.05.58v1.12l1.66-1.25ZM78.77,4.96v-.39l-1.66,1.24c.01.18.03.33.07.47s.09.25.15.34c.07.1.15.18.26.23s.22.08.36.08.25-.02.35-.07.18-.12.25-.21c.08-.11.14-.24.17-.41s.06-.36.06-.58v-.69Z"/>
        <path d="M80.33,7.65v-.7l1.84-2c.15-.16.27-.31.38-.44s.18-.25.25-.36c.06-.11.11-.21.13-.3s.04-.19.04-.28c0-.13-.02-.25-.06-.35s-.09-.19-.16-.27c-.07-.07-.16-.13-.26-.17s-.21-.06-.33-.06c-.16,0-.29.02-.41.07s-.21.11-.29.19c-.08.09-.14.19-.18.32s-.06.27-.06.43h-1.02c0-.25.05-.49.14-.71s.23-.42.4-.58c.17-.17.38-.3.62-.4s.52-.14.82-.14c.28,0,.54.04.76.12s.41.19.56.34c.15.15.26.32.34.52s.12.42.12.67c0,.19-.03.36-.09.53s-.14.34-.24.5c-.11.16-.23.33-.38.5s-.31.35-.48.53l-1.17,1.24h2.57v.81h-3.85Z"/>
        <path d="M87.75,2.78h-.06c-.3,0-.56.04-.78.12s-.41.19-.57.33c-.16.15-.28.32-.37.52s-.15.42-.17.66c.06-.07.13-.13.21-.2s.17-.12.27-.18c.1-.05.2-.09.32-.12s.24-.05.37-.05c.27,0,.51.05.71.16s.37.24.51.42c.14.18.24.38.3.61s.1.47.1.73c0,.27-.04.53-.13.77s-.21.44-.37.62-.36.31-.59.41-.49.15-.78.15-.57-.06-.81-.17-.44-.27-.61-.47c-.17-.2-.3-.44-.39-.71s-.13-.57-.13-.88v-.4c0-.46.06-.88.18-1.28s.31-.74.57-1.03c.24-.27.53-.48.88-.62s.76-.22,1.21-.22h.12v.85ZM86.39,4.73c-.1.03-.19.08-.27.14-.07.05-.14.11-.2.19s-.11.15-.14.24v.3c0,.22.02.41.07.57s.11.3.2.41.18.19.29.25.23.08.36.08.26-.03.37-.08.2-.13.28-.23c.08-.1.13-.21.17-.35s.06-.28.06-.45-.02-.3-.06-.44-.1-.26-.18-.36c-.08-.1-.17-.18-.28-.23s-.24-.09-.38-.09c-.11,0-.21.02-.3.05Z"/>
      </g>
      <g>
        <path d="M128.45,83.28c-.08.28-.21.51-.37.7-.16.19-.35.33-.58.43-.23.1-.49.15-.78.15s-.54-.05-.77-.14-.42-.24-.58-.43c-.16-.19-.29-.42-.37-.7s-.13-.6-.13-.97v-1.35c0-.37.04-.69.13-.97s.21-.52.37-.71c.16-.19.35-.33.58-.43s.48-.15.77-.15.55.05.78.15.42.24.58.43c.16.19.28.43.37.71s.13.6.13.97v1.35c0,.37-.04.69-.13.97ZM127.56,80.66c-.01-.21-.04-.39-.08-.54s-.1-.27-.19-.37c-.06-.08-.15-.14-.24-.17s-.21-.06-.33-.06c-.13,0-.25.02-.35.07s-.18.12-.25.21c-.08.1-.14.23-.17.4s-.05.36-.05.58v1.12l1.66-1.25ZM127.56,81.78v-.39l-1.66,1.24c.01.18.03.33.07.47s.09.25.15.34c.07.1.15.18.26.23s.22.08.36.08.25-.02.35-.07.18-.12.25-.21c.08-.11.14-.24.17-.41s.06-.36.06-.58v-.69Z"/>
        <path d="M132.85,83.28c-.08.28-.21.51-.37.7-.16.19-.35.33-.58.43s-.49.15-.78.15-.54-.05-.77-.14-.42-.24-.58-.43c-.16-.19-.29-.42-.37-.7s-.13-.6-.13-.97v-1.35c0-.37.04-.69.13-.97s.21-.52.37-.71c.16-.19.35-.33.58-.43s.48-.15.77-.15.55.05.78.15.42.24.58.43c.16.19.28.43.37.71s.13.6.13.97v1.35c0,.37-.04.69-.13.97ZM131.96,80.66c-.01-.21-.04-.39-.08-.54s-.1-.27-.19-.37c-.06-.08-.15-.14-.24-.17s-.21-.06-.33-.06c-.13,0-.25.02-.35.07s-.18.12-.25.21c-.08.1-.14.23-.17.4s-.05.36-.05.58v1.12l1.66-1.25ZM131.96,81.78v-.39l-1.66,1.24c.01.18.03.33.07.47.04.13.09.25.15.34.07.1.15.18.26.23s.22.08.36.08.25-.02.35-.07.18-.12.25-.21c.08-.11.14-.24.17-.41s.06-.36.06-.58v-.69Z"/>
        <path d="M137.25,83.28c-.08.28-.21.51-.37.7-.16.19-.35.33-.58.43s-.49.15-.78.15-.54-.05-.77-.14-.42-.24-.58-.43c-.16-.19-.29-.42-.37-.7s-.13-.6-.13-.97v-1.35c0-.37.04-.69.13-.97s.21-.52.37-.71c.16-.19.35-.33.58-.43s.48-.15.77-.15.55.05.78.15.42.24.58.43c.16.19.28.43.37.71s.13.6.13.97v1.35c0,.37-.04.69-.13.97ZM136.36,80.66c-.01-.21-.04-.39-.08-.54s-.1-.27-.19-.37c-.06-.08-.15-.14-.24-.17s-.21-.06-.33-.06c-.13,0-.25.02-.35.07s-.18.12-.25.21c-.08.1-.14.23-.17.4s-.05.36-.05.58v1.12l1.66-1.25ZM136.36,81.78v-.39l-1.66,1.24c.01.18.03.33.07.47s.09.25.15.34c.07.1.15.18.26.23.1.05.22.08.36.08s.25-.02.35-.07.18-.12.25-.21c.08-.11.14-.24.17-.41s.06-.36.06-.58v-.69Z"/>
        <path d="M137.93,84.48v-.7l1.84-2c.15-.16.27-.31.38-.44s.18-.25.25-.36c.06-.11.11-.21.13-.3s.04-.19.04-.28c0-.13-.02-.25-.06-.35s-.09-.19-.16-.27c-.07-.07-.16-.13-.26-.17s-.21-.06-.33-.06c-.16,0-.29.02-.41.07s-.21.11-.29.19c-.08.09-.14.19-.18.32s-.06.27-.06.43h-1.02c0-.25.05-.49.14-.71s.23-.42.4-.58c.17-.17.38-.3.62-.4s.52-.14.82-.14c.28,0,.54.04.76.12s.41.19.56.34c.15.15.26.32.34.52s.12.42.12.67c0,.19-.03.36-.09.53s-.14.34-.24.5c-.11.16-.23.33-.38.5s-.31.35-.48.53l-1.17,1.24h2.57v.81h-3.85Z"/>
        <path d="M144.12,81.19c.16,0,.3-.02.42-.07s.22-.11.29-.19c.07-.07.12-.16.16-.26s.05-.21.05-.33-.02-.24-.05-.34-.09-.18-.16-.25c-.07-.07-.15-.12-.26-.16s-.23-.05-.37-.05c-.12,0-.23.02-.33.05s-.19.08-.26.14c-.08.06-.14.14-.18.23s-.06.19-.06.31h-1.01c0-.23.05-.44.14-.63s.22-.36.38-.5c.16-.14.36-.24.58-.32s.46-.12.72-.12c.28,0,.53.03.76.1s.43.17.59.31c.16.14.29.31.38.51s.13.43.13.7c0,.12-.02.24-.05.36s-.09.23-.16.34c-.07.11-.16.21-.26.3s-.23.17-.37.23c.16.06.31.13.42.22s.22.19.29.31c.07.12.13.24.16.38s.05.27.05.42c0,.27-.05.5-.15.71s-.24.38-.41.52c-.17.14-.38.25-.62.33s-.5.11-.77.11c-.24,0-.48-.03-.71-.1s-.43-.17-.61-.3c-.18-.13-.32-.3-.42-.5s-.16-.44-.16-.71h1.01c0,.12.02.22.07.32s.11.18.19.25c.08.07.17.13.28.17s.23.06.37.06c.15,0,.28-.02.39-.06s.21-.1.29-.18c.08-.07.14-.16.18-.26s.06-.23.06-.36c0-.16-.02-.29-.07-.41s-.12-.21-.2-.28c-.09-.08-.2-.13-.32-.17s-.26-.05-.42-.05h-.58v-.79h.58Z"/>
        <path d="M149.74,79.6h-.06c-.3,0-.56.04-.78.12s-.41.19-.57.33c-.16.15-.28.32-.37.52s-.15.42-.17.66c.06-.07.13-.13.21-.2s.17-.12.27-.18c.1-.05.2-.09.32-.12s.24-.05.37-.05c.27,0,.51.05.71.16s.37.24.51.42c.14.18.24.38.3.61s.1.47.1.73c0,.27-.04.53-.13.77s-.21.44-.37.62-.36.31-.59.41-.49.15-.78.15-.57-.06-.81-.17-.44-.27-.61-.47c-.17-.2-.3-.44-.39-.71s-.13-.57-.13-.88v-.4c0-.46.06-.88.18-1.28s.31-.74.57-1.03c.24-.27.53-.48.88-.62s.76-.22,1.21-.22h.12v.85ZM148.39,81.56c-.1.03-.19.08-.27.14-.07.05-.14.11-.2.19s-.11.15-.14.24v.3c0,.22.02.41.07.57s.11.3.2.41.18.19.29.25.23.08.36.08.26-.03.37-.08.2-.13.28-.23c.08-.1.13-.21.17-.35s.06-.28.06-.45-.02-.3-.06-.44-.1-.26-.18-.36c-.08-.1-.17-.18-.28-.23s-.24-.09-.38-.09c-.11,0-.21.02-.3.05Z"/>
        <path d="M152.75,84.48h-1.06l2.25-4.86h-2.9v-.83h3.96v.56l-2.25,5.12Z"/>
        <path d="M159.52,82.41v.82h-.69v1.25h-1.01v-1.25h-2.41l-.04-.62,2.43-3.81h1.03v3.62h.69ZM157.82,82.41v-2.26l-.11.2-1.33,2.07h1.43Z"/>
        <path d="M161.65,83.56c.22-.07.4-.17.55-.29.15-.13.26-.29.34-.47s.12-.38.15-.59v-.02c-.06.06-.12.12-.19.17s-.15.1-.23.13c-.09.04-.19.07-.3.1s-.23.04-.36.04c-.27,0-.51-.05-.72-.15s-.38-.24-.51-.41c-.14-.17-.25-.37-.31-.61s-.1-.48-.1-.74c0-.27.04-.53.13-.78s.21-.46.37-.63c.16-.18.35-.33.58-.43s.49-.16.78-.16.56.06.79.17.43.27.59.47c.17.21.29.45.38.74s.13.6.13.93v.35c0,.45-.05.87-.16,1.27s-.29.74-.54,1.03c-.22.26-.51.47-.87.62s-.78.22-1.28.22h-.08v-.86h.07c.3,0,.57-.03.79-.1ZM162.12,81.79c.09-.03.18-.08.25-.13.07-.05.14-.12.19-.2s.1-.16.13-.25v-.36c0-.22-.02-.41-.07-.57s-.11-.3-.19-.41-.18-.2-.28-.25-.22-.08-.35-.08c-.14,0-.26.03-.36.09s-.2.15-.27.25c-.07.11-.13.23-.17.37s-.06.29-.06.44.02.29.05.43.09.26.16.37.16.19.27.25.24.09.38.09c.1,0,.2-.02.29-.05Z"/>
      </g>
    </g>
  </g>
</svg>